<svg xmlns="http://www.w3.org/2000/svg" width="560" height="300" viewBox="0 0 560 300" role="img" aria-label="Last 7 Days">
  <defs>
    <clipPath id="vibe-tool-recent-bar">
      <rect x="32" y="68" width="496" height="10" rx="8" ry="8" />
    </clipPath>
  </defs>
  <rect x="1" y="1" width="558" height="298" fill="#0d1117" stroke="#24493e" stroke-width="2" rx="8" />
  <text x="32" y="32" fill="#5eead4" font-size="18" font-weight="700" font-family="system-ui, sans-serif">Last 7 Days</text>
  <text x="32" y="50" fill="#8b949e" font-size="11" font-family="system-ui, sans-serif">Daily tool usage</text>
  <text x="528" y="50" fill="#8b949e" font-size="11" font-family="system-ui, sans-serif" text-anchor="end">100%</text>
  <rect x="32" y="68" width="496" height="10" fill="#30363d" rx="8" ry="8" />
  <rect x="32.00" y="68" width="336.54" height="10" fill="#10b981" clip-path="url(#vibe-tool-recent-bar)" /><rect x="368.54" y="68" width="150.98" height="10" fill="#3b82f6" clip-path="url(#vibe-tool-recent-bar)" /><rect x="519.52" y="68" width="8.48" height="10" fill="#d97757" clip-path="url(#vibe-tool-recent-bar)" />
  <g transform="translate(33.0,101.0) scale(0.8333333333333334)"><path d="M2 2C2 1 3 0 4.5 0H7.5C9 0 10 1 10 2V4.5L12 6.5L10 7.5V9C10 10 9 11 7.5 11H4.5C3 11 2 10 2 9V7.5L0 6.5L2 4.5Z" fill="#10b981"/></g><text x="48" y="110" fill="#c9d1d9" font-size="12" font-weight="600" font-family="system-ui, sans-serif">GitHub Copilot</text><text x="272" y="110" fill="#8b949e" font-size="11" font-family="system-ui, sans-serif" text-anchor="end">68%  3h 27m</text><polyline points="32.0,138.0 32.0,135.0 71.3,132.2 110.7,137.0 150.0,137.0 189.3,130.1 228.7,120.0 268.0,136.0 268.0,138.0" fill="#10b981" fill-opacity="0.1" stroke="none" /><polyline points="32.0,135.0 71.3,132.2 110.7,137.0 150.0,137.0 189.3,130.1 228.7,120.0 268.0,136.0" fill="none" stroke="#10b981" stroke-width="1.5" stroke-linecap="round" stroke-linejoin="round" /><g transform="translate(33.0,145.0) scale(0.8333333333333334)"><path d="M6 .7L10.6 3.35V8.65L6 11.3L1.4 8.65V3.35Z" fill="#3b82f6"/></g><text x="48" y="154" fill="#c9d1d9" font-size="12" font-weight="600" font-family="system-ui, sans-serif">Codex</text><text x="272" y="154" fill="#8b949e" font-size="11" font-family="system-ui, sans-serif" text-anchor="end">30%  1h 33m</text><polyline points="32.0,182.0 32.0,181.0 71.3,181.0 110.7,181.0 150.0,181.0 189.3,181.0 228.7,169.9 268.0,164.0 268.0,182.0" fill="#3b82f6" fill-opacity="0.1" stroke="none" /><polyline points="32.0,181.0 71.3,181.0 110.7,181.0 150.0,181.0 189.3,181.0 228.7,169.9 268.0,164.0" fill="none" stroke="#3b82f6" stroke-width="1.5" stroke-linecap="round" stroke-linejoin="round" /><g transform="translate(301.0,101.0) scale(0.8333333333333334)"><path d="M6 0C6.5 3.8 8.2 5.5 12 6C8.2 6.5 6.5 8.2 6 12C5.5 8.2 3.8 6.5 0 6C3.8 5.5 5.5 3.8 6 0Z" fill="#d97757"/></g><text x="316" y="110" fill="#c9d1d9" font-size="12" font-weight="600" font-family="system-ui, sans-serif">Claude</text><text x="540" y="110" fill="#8b949e" font-size="11" font-family="system-ui, sans-serif" text-anchor="end">2%  5m</text><polyline points="300.0,138.0 300.0,137.0 339.3,137.0 378.7,137.0 418.0,137.0 457.3,137.0 496.7,137.0 536.0,120.0 536.0,138.0" fill="#d97757" fill-opacity="0.1" stroke="none" /><polyline points="300.0,137.0 339.3,137.0 378.7,137.0 418.0,137.0 457.3,137.0 496.7,137.0 536.0,120.0" fill="none" stroke="#d97757" stroke-width="1.5" stroke-linecap="round" stroke-linejoin="round" />
</svg>
