<svg xmlns="http://www.w3.org/2000/svg" width="883" height="237" viewBox="0 0 883 237" role="img" aria-label="Vibe coding heatmap">
  <rect x="1" y="1" width="881" height="235" fill="#0d1117" stroke="#24493e" stroke-width="2" rx="10" />
  <text x="16" y="28" fill="#e6edf3" font-size="18" font-family="system-ui, sans-serif">81 sessions, 80 active minutes, 5 active days in 2026 (combined, sessions)</text>
  <text x="56" y="38" fill="#c9d1d9" font-size="10" font-family="system-ui, sans-serif">Jan</text><text x="131" y="38" fill="#c9d1d9" font-size="10" font-family="system-ui, sans-serif">Feb</text><text x="191" y="38" fill="#c9d1d9" font-size="10" font-family="system-ui, sans-serif">Mar</text><text x="251" y="38" fill="#c9d1d9" font-size="10" font-family="system-ui, sans-serif">Apr</text><text x="311" y="38" fill="#c9d1d9" font-size="10" font-family="system-ui, sans-serif">May</text><text x="386" y="38" fill="#c9d1d9" font-size="10" font-family="system-ui, sans-serif">Jun</text><text x="446" y="38" fill="#c9d1d9" font-size="10" font-family="system-ui, sans-serif">Jul</text><text x="506" y="38" fill="#c9d1d9" font-size="10" font-family="system-ui, sans-serif">Aug</text><text x="581" y="38" fill="#c9d1d9" font-size="10" font-family="system-ui, sans-serif">Sep</text><text x="641" y="38" fill="#c9d1d9" font-size="10" font-family="system-ui, sans-serif">Oct</text><text x="716" y="38" fill="#c9d1d9" font-size="10" font-family="system-ui, sans-serif">Nov</text><text x="776" y="38" fill="#c9d1d9" font-size="10" font-family="system-ui, sans-serif">Dec</text>
  <text x="16" y="76" fill="#8b949e" font-size="10" font-family="system-ui, sans-serif">Mon</text><text x="16" y="106" fill="#8b949e" font-size="10" font-family="system-ui, sans-serif">Wed</text><text x="16" y="136" fill="#8b949e" font-size="10" font-family="system-ui, sans-serif">Fri</text>
  <rect x="56" y="52" width="11" height="11" rx="2" ry="2" fill="#120c08"><title>2025-12-28: out of range</title></rect><rect x="56" y="67" width="11" height="11" rx="2" ry="2" fill="#120c08"><title>2025-12-29: out of range</title></rect><rect x="56" y="82" width="11" height="11" rx="2" ry="2" fill="#120c08"><title>2025-12-30: out of range</title></rect><rect x="56" y="97" width="11" height="11" rx="2" ry="2" fill="#120c08"><title>2025-12-31: out of range</title></rect><rect x="56" y="112" width="11" height="11" rx="2" ry="2" fill="#1d1511"><title>2026-01-01: 0 active minutes, 0 sessions, 0 events</title></rect><rect x="56" y="127" width="11" height="11" rx="2" ry="2" fill="#1d1511"><title>2026-01-02: 0 active minutes, 0 sessions, 0 events</title></rect><rect x="56" y="142" width="11" height="11" rx="2" ry="2" fill="#1d1511"><title>2026-01-03: 0 active minutes, 0 sessions, 0 events</title></rect><rect x="71" y="52" width="11" height="11" rx="2" ry="2" fill="#1d1511"><title>2026-01-04: 0 active minutes, 0 sessions, 0 events</title></rect><rect x="71" y="67" width="11" height="11" rx="2" ry="2" fill="#1d1511"><title>2026-01-05: 0 active minutes, 0 sessions, 0 events</title></rect><rect x="71" y="82" width="11" height="11" rx="2" ry="2" fill="#1d1511"><title>2026-01-06: 0 active minutes, 0 sessions, 0 events</title></rect><rect x="71" y="97" width="11" height="11" rx="2" ry="2" fill="#1d1511"><title>2026-01-07: 0 active minutes, 0 sessions, 0 events</title></rect><rect x="71" y="112" width="11" height="11" rx="2" ry="2" fill="#1d1511"><title>2026-01-08: 0 active minutes, 0 sessions, 0 events</title></rect><rect x="71" y="127" width="11" height="11" rx="2" ry="2" fill="#1d1511"><title>2026-01-09: 0 active minutes, 0 sessions, 0 events</title></rect><rect x="71" y="142" width="11" height="11" rx="2" ry="2" fill="#1d1511"><title>2026-01-10: 0 active minutes, 0 sessions, 0 events</title></rect><rect x="86" y="52" width="11" height="11" rx="2" ry="2" fill="#1d1511"><title>2026-01-11: 0 active minutes, 0 sessions, 0 events</title></rect><rect x="86" y="67" width="11" height="11" rx="2" ry="2" fill="#1d1511"><title>2026-01-12: 0 active minutes, 0 sessions, 0 events</title></rect><rect x="86" y="82" width="11" height="11" rx="2" ry="2" fill="#1d1511"><title>2026-01-13: 0 active minutes, 0 sessions, 0 events</title></rect><rect x="86" y="97" width="11" height="11" rx="2" ry="2" fill="#1d1511"><title>2026-01-14: 0 active minutes, 0 sessions, 0 events</title></rect><rect x="86" y="112" width="11" height="11" rx="2" ry="2" fill="#1d1511"><title>2026-01-15: 0 active minutes, 0 sessions, 0 events</title></rect><rect x="86" y="127" width="11" height="11" rx="2" ry="2" fill="#1d1511"><title>2026-01-16: 0 active minutes, 0 sessions, 0 events</title></rect><rect x="86" y="142" width="11" height="11" rx="2" ry="2" fill="#1d1511"><title>2026-01-17: 0 active minutes, 0 sessions, 0 events</title></rect><rect x="101" y="52" width="11" height="11" rx="2" ry="2" fill="#1d1511"><title>2026-01-18: 0 active minutes, 0 sessions, 0 events</title></rect><rect x="101" y="67" width="11" height="11" rx="2" ry="2" fill="#1d1511"><title>2026-01-19: 0 active minutes, 0 sessions, 0 events</title></rect><rect x="101" y="82" width="11" height="11" rx="2" ry="2" fill="#1d1511"><title>2026-01-20: 0 active minutes, 0 sessions, 0 events</title></rect><rect x="101" y="97" width="11" height="11" rx="2" ry="2" fill="#1d1511"><title>2026-01-21: 0 active minutes, 0 sessions, 0 events</title></rect><rect x="101" y="112" width="11" height="11" rx="2" ry="2" fill="#1d1511"><title>2026-01-22: 0 active minutes, 0 sessions, 0 events</title></rect><rect x="101" y="127" width="11" height="11" rx="2" ry="2" fill="#1d1511"><title>2026-01-23: 0 active minutes, 0 sessions, 0 events</title></rect><rect x="101" y="142" width="11" height="11" rx="2" ry="2" fill="#1d1511"><title>2026-01-24: 0 active minutes, 0 sessions, 0 events</title></rect><rect x="116" y="52" width="11" height="11" rx="2" ry="2" fill="#1d1511"><title>2026-01-25: 0 active minutes, 0 sessions, 0 events</title></rect><rect x="116" y="67" width="11" height="11" rx="2" ry="2" fill="#1d1511"><title>2026-01-26: 0 active minutes, 0 sessions, 0 events</title></rect><rect x="116" y="82" width="11" height="11" rx="2" ry="2" fill="#1d1511"><title>2026-01-27: 0 active minutes, 0 sessions, 0 events</title></rect><rect x="116" y="97" width="11" height="11" rx="2" ry="2" fill="#1d1511"><title>2026-01-28: 0 active minutes, 0 sessions, 0 events</title></rect><rect x="116" y="112" width="11" height="11" rx="2" ry="2" fill="#1d1511"><title>2026-01-29: 0 active minutes, 0 sessions, 0 events</title></rect><rect x="116" y="127" width="11" height="11" rx="2" ry="2" fill="#1d1511"><title>2026-01-30: 0 active minutes, 0 sessions, 0 events</title></rect><rect x="116" y="142" width="11" height="11" rx="2" ry="2" fill="#1d1511"><title>2026-01-31: 0 active minutes, 0 sessions, 0 events</title></rect><rect x="131" y="52" width="11" height="11" rx="2" ry="2" fill="#1d1511"><title>2026-02-01: 0 active minutes, 0 sessions, 0 events</title></rect><rect x="131" y="67" width="11" height="11" rx="2" ry="2" fill="#1d1511"><title>2026-02-02: 0 active minutes, 0 sessions, 0 events</title></rect><rect x="131" y="82" width="11" height="11" rx="2" ry="2" fill="#1d1511"><title>2026-02-03: 0 active minutes, 0 sessions, 0 events</title></rect><rect x="131" y="97" width="11" height="11" rx="2" ry="2" fill="#1d1511"><title>2026-02-04: 0 active minutes, 0 sessions, 0 events</title></rect><rect x="131" y="112" width="11" height="11" rx="2" ry="2" fill="#1d1511"><title>2026-02-05: 0 active minutes, 0 sessions, 0 events</title></rect><rect x="131" y="127" width="11" height="11" rx="2" ry="2" fill="#1d1511"><title>2026-02-06: 0 active minutes, 0 sessions, 0 events</title></rect><rect x="131" y="142" width="11" height="11" rx="2" ry="2" fill="#1d1511"><title>2026-02-07: 0 active minutes, 0 sessions, 0 events</title></rect><rect x="146" y="52" width="11" height="11" rx="2" ry="2" fill="#1d1511"><title>2026-02-08: 0 active minutes, 0 sessions, 0 events</title></rect><rect x="146" y="67" width="11" height="11" rx="2" ry="2" fill="#1d1511"><title>2026-02-09: 0 active minutes, 0 sessions, 0 events</title></rect><rect x="146" y="82" width="11" height="11" rx="2" ry="2" fill="#1d1511"><title>2026-02-10: 0 active minutes, 0 sessions, 0 events</title></rect><rect x="146" y="97" width="11" height="11" rx="2" ry="2" fill="#1d1511"><title>2026-02-11: 0 active minutes, 0 sessions, 0 events</title></rect><rect x="146" y="112" width="11" height="11" rx="2" ry="2" fill="#1d1511"><title>2026-02-12: 0 active minutes, 0 sessions, 0 events</title></rect><rect x="146" y="127" width="11" height="11" rx="2" ry="2" fill="#1d1511"><title>2026-02-13: 0 active minutes, 0 sessions, 0 events</title></rect><rect x="146" y="142" width="11" height="11" rx="2" ry="2" fill="#1d1511"><title>2026-02-14: 0 active minutes, 0 sessions, 0 events</title></rect><rect x="161" y="52" width="11" height="11" rx="2" ry="2" fill="#1d1511"><title>2026-02-15: 0 active minutes, 0 sessions, 0 events</title></rect><rect x="161" y="67" width="11" height="11" rx="2" ry="2" fill="#1d1511"><title>2026-02-16: 0 active minutes, 0 sessions, 0 events</title></rect><rect x="161" y="82" width="11" height="11" rx="2" ry="2" fill="#1d1511"><title>2026-02-17: 0 active minutes, 0 sessions, 0 events</title></rect><rect x="161" y="97" width="11" height="11" rx="2" ry="2" fill="#1d1511"><title>2026-02-18: 0 active minutes, 0 sessions, 0 events</title></rect><rect x="161" y="112" width="11" height="11" rx="2" ry="2" fill="#1d1511"><title>2026-02-19: 0 active minutes, 0 sessions, 0 events</title></rect><rect x="161" y="127" width="11" height="11" rx="2" ry="2" fill="#1d1511"><title>2026-02-20: 0 active minutes, 0 sessions, 0 events</title></rect><rect x="161" y="142" width="11" height="11" rx="2" ry="2" fill="#1d1511"><title>2026-02-21: 0 active minutes, 0 sessions, 0 events</title></rect><rect x="176" y="52" width="11" height="11" rx="2" ry="2" fill="#1d1511"><title>2026-02-22: 0 active minutes, 0 sessions, 0 events</title></rect><rect x="176" y="67" width="11" height="11" rx="2" ry="2" fill="#1d1511"><title>2026-02-23: 0 active minutes, 0 sessions, 0 events</title></rect><rect x="176" y="82" width="11" height="11" rx="2" ry="2" fill="#1d1511"><title>2026-02-24: 0 active minutes, 0 sessions, 0 events</title></rect><rect x="176" y="97" width="11" height="11" rx="2" ry="2" fill="#1d1511"><title>2026-02-25: 0 active minutes, 0 sessions, 0 events</title></rect><rect x="176" y="112" width="11" height="11" rx="2" ry="2" fill="#1d1511"><title>2026-02-26: 0 active minutes, 0 sessions, 0 events</title></rect><rect x="176" y="127" width="11" height="11" rx="2" ry="2" fill="#1d1511"><title>2026-02-27: 0 active minutes, 0 sessions, 0 events</title></rect><rect x="176" y="142" width="11" height="11" rx="2" ry="2" fill="#1d1511"><title>2026-02-28: 0 active minutes, 0 sessions, 0 events</title></rect><rect x="191" y="52" width="11" height="11" rx="2" ry="2" fill="#1d1511"><title>2026-03-01: 0 active minutes, 0 sessions, 0 events</title></rect><rect x="191" y="67" width="11" height="11" rx="2" ry="2" fill="#1d1511"><title>2026-03-02: 0 active minutes, 0 sessions, 0 events</title></rect><rect x="191" y="82" width="11" height="11" rx="2" ry="2" fill="#1d1511"><title>2026-03-03: 0 active minutes, 0 sessions, 0 events</title></rect><rect x="191" y="97" width="11" height="11" rx="2" ry="2" fill="#172948"><title>2026-03-04: 19 active minutes, 2 sessions, 14 events</title></rect><rect x="191" y="112" width="11" height="11" rx="2" ry="2" fill="#172948"><title>2026-03-05: 24 active minutes, 2 sessions, 24 events</title></rect><rect x="191" y="127" width="11" height="11" rx="2" ry="2" fill="#1d1511"><title>2026-03-06: 0 active minutes, 0 sessions, 0 events</title></rect><rect x="191" y="142" width="11" height="11" rx="2" ry="2" fill="#1d1511"><title>2026-03-07: 0 active minutes, 0 sessions, 0 events</title></rect><rect x="206" y="52" width="11" height="11" rx="2" ry="2" fill="#1d1511"><title>2026-03-08: 0 active minutes, 0 sessions, 0 events</title></rect><rect x="206" y="67" width="11" height="11" rx="2" ry="2" fill="#1d1511"><title>2026-03-09: 0 active minutes, 0 sessions, 0 events</title></rect><rect x="206" y="82" width="11" height="11" rx="2" ry="2" fill="#1d1511"><title>2026-03-10: 0 active minutes, 0 sessions, 0 events</title></rect><rect x="206" y="97" width="11" height="11" rx="2" ry="2" fill="#1d1511"><title>2026-03-11: 0 active minutes, 0 sessions, 0 events</title></rect><rect x="206" y="112" width="11" height="11" rx="2" ry="2" fill="#1d1511"><title>2026-03-12: 0 active minutes, 0 sessions, 0 events</title></rect><rect x="206" y="127" width="11" height="11" rx="2" ry="2" fill="#1d1511"><title>2026-03-13: 0 active minutes, 0 sessions, 0 events</title></rect><rect x="206" y="142" width="11" height="11" rx="2" ry="2" fill="#1d1511"><title>2026-03-14: 0 active minutes, 0 sessions, 0 events</title></rect><rect x="221" y="52" width="11" height="11" rx="2" ry="2" fill="#1d1511"><title>2026-03-15: 0 active minutes, 0 sessions, 0 events</title></rect><rect x="221" y="67" width="11" height="11" rx="2" ry="2" fill="#1d1511"><title>2026-03-16: 0 active minutes, 0 sessions, 0 events</title></rect><rect x="221" y="82" width="11" height="11" rx="2" ry="2" fill="#1d1511"><title>2026-03-17: 0 active minutes, 0 sessions, 0 events</title></rect><rect x="221" y="97" width="11" height="11" rx="2" ry="2" fill="#1d1511"><title>2026-03-18: 0 active minutes, 0 sessions, 0 events</title></rect><rect x="221" y="112" width="11" height="11" rx="2" ry="2" fill="#1d1511"><title>2026-03-19: 0 active minutes, 0 sessions, 0 events</title></rect><rect x="221" y="127" width="11" height="11" rx="2" ry="2" fill="#1d1511"><title>2026-03-20: 0 active minutes, 0 sessions, 0 events</title></rect><rect x="221" y="142" width="11" height="11" rx="2" ry="2" fill="#1d1511"><title>2026-03-21: 0 active minutes, 0 sessions, 0 events</title></rect><rect x="236" y="52" width="11" height="11" rx="2" ry="2" fill="#1d1511"><title>2026-03-22: 0 active minutes, 0 sessions, 0 events</title></rect><rect x="236" y="67" width="11" height="11" rx="2" ry="2" fill="#1d1511"><title>2026-03-23: 0 active minutes, 0 sessions, 0 events</title></rect><rect x="236" y="82" width="11" height="11" rx="2" ry="2" fill="#1d1511"><title>2026-03-24: 0 active minutes, 0 sessions, 0 events</title></rect><rect x="236" y="97" width="11" height="11" rx="2" ry="2" fill="#1d1511"><title>2026-03-25: 0 active minutes, 0 sessions, 0 events</title></rect><rect x="236" y="112" width="11" height="11" rx="2" ry="2" fill="#1d1511"><title>2026-03-26: 0 active minutes, 0 sessions, 0 events</title></rect><rect x="236" y="127" width="11" height="11" rx="2" ry="2" fill="#1d1511"><title>2026-03-27: 0 active minutes, 0 sessions, 0 events</title></rect><rect x="236" y="142" width="11" height="11" rx="2" ry="2" fill="#1d1511"><title>2026-03-28: 0 active minutes, 0 sessions, 0 events</title></rect><rect x="251" y="52" width="11" height="11" rx="2" ry="2" fill="#1d1511"><title>2026-03-29: 0 active minutes, 0 sessions, 0 events</title></rect><rect x="251" y="67" width="11" height="11" rx="2" ry="2" fill="#1d1511"><title>2026-03-30: 0 active minutes, 0 sessions, 0 events</title></rect><rect x="251" y="82" width="11" height="11" rx="2" ry="2" fill="#1d1511"><title>2026-03-31: 0 active minutes, 0 sessions, 0 events</title></rect><rect x="251" y="97" width="11" height="11" rx="2" ry="2" fill="#1d1511"><title>2026-04-01: 0 active minutes, 0 sessions, 0 events</title></rect><rect x="251" y="112" width="11" height="11" rx="2" ry="2" fill="#1d1511"><title>2026-04-02: 0 active minutes, 0 sessions, 0 events</title></rect><rect x="251" y="127" width="11" height="11" rx="2" ry="2" fill="#1d1511"><title>2026-04-03: 0 active minutes, 0 sessions, 0 events</title></rect><rect x="251" y="142" width="11" height="11" rx="2" ry="2" fill="#1d1511"><title>2026-04-04: 0 active minutes, 0 sessions, 0 events</title></rect><rect x="266" y="52" width="11" height="11" rx="2" ry="2" fill="#1d1511"><title>2026-04-05: 0 active minutes, 0 sessions, 0 events</title></rect><rect x="266" y="67" width="11" height="11" rx="2" ry="2" fill="#1d1511"><title>2026-04-06: 0 active minutes, 0 sessions, 0 events</title></rect><rect x="266" y="82" width="11" height="11" rx="2" ry="2" fill="#1d1511"><title>2026-04-07: 0 active minutes, 0 sessions, 0 events</title></rect><rect x="266" y="97" width="11" height="11" rx="2" ry="2" fill="#1d1511"><title>2026-04-08: 0 active minutes, 0 sessions, 0 events</title></rect><rect x="266" y="112" width="11" height="11" rx="2" ry="2" fill="#1d1511"><title>2026-04-09: 0 active minutes, 0 sessions, 0 events</title></rect><rect x="266" y="127" width="11" height="11" rx="2" ry="2" fill="#1d1511"><title>2026-04-10: 0 active minutes, 0 sessions, 0 events</title></rect><rect x="266" y="142" width="11" height="11" rx="2" ry="2" fill="#1d1511"><title>2026-04-11: 0 active minutes, 0 sessions, 0 events</title></rect><rect x="281" y="52" width="11" height="11" rx="2" ry="2" fill="#1d1511"><title>2026-04-12: 0 active minutes, 0 sessions, 0 events</title></rect><rect x="281" y="67" width="11" height="11" rx="2" ry="2" fill="#1d1511"><title>2026-04-13: 0 active minutes, 0 sessions, 0 events</title></rect><rect x="281" y="82" width="11" height="11" rx="2" ry="2" fill="#172948"><title>2026-04-14: 4 active minutes, 2 sessions, 9 events</title></rect><rect x="281" y="97" width="11" height="11" rx="2" ry="2" fill="#1d1511"><title>2026-04-15: 0 active minutes, 0 sessions, 0 events</title></rect><rect x="281" y="112" width="11" height="11" rx="2" ry="2" fill="#1d1511"><title>2026-04-16: 0 active minutes, 0 sessions, 0 events</title></rect><rect x="281" y="127" width="11" height="11" rx="2" ry="2" fill="#1d1511"><title>2026-04-17: 0 active minutes, 0 sessions, 0 events</title></rect><rect x="281" y="142" width="11" height="11" rx="2" ry="2" fill="#1d1511"><title>2026-04-18: 0 active minutes, 0 sessions, 0 events</title></rect><rect x="296" y="52" width="11" height="11" rx="2" ry="2" fill="#1d1511"><title>2026-04-19: 0 active minutes, 0 sessions, 0 events</title></rect><rect x="296" y="67" width="11" height="11" rx="2" ry="2" fill="#1d1511"><title>2026-04-20: 0 active minutes, 0 sessions, 0 events</title></rect><rect x="296" y="82" width="11" height="11" rx="2" ry="2" fill="#1d1511"><title>2026-04-21: 0 active minutes, 0 sessions, 0 events</title></rect><rect x="296" y="97" width="11" height="11" rx="2" ry="2" fill="#1d1511"><title>2026-04-22: 0 active minutes, 0 sessions, 0 events</title></rect><rect x="296" y="112" width="11" height="11" rx="2" ry="2" fill="#1d1511"><title>2026-04-23: 0 active minutes, 0 sessions, 0 events</title></rect><rect x="296" y="127" width="11" height="11" rx="2" ry="2" fill="#1d1511"><title>2026-04-24: 0 active minutes, 0 sessions, 0 events</title></rect><rect x="296" y="142" width="11" height="11" rx="2" ry="2" fill="#1d1511"><title>2026-04-25: 0 active minutes, 0 sessions, 0 events</title></rect><rect x="311" y="52" width="11" height="11" rx="2" ry="2" fill="#1d1511"><title>2026-04-26: 0 active minutes, 0 sessions, 0 events</title></rect><rect x="311" y="67" width="11" height="11" rx="2" ry="2" fill="#1d1511"><title>2026-04-27: 0 active minutes, 0 sessions, 0 events</title></rect><rect x="311" y="82" width="11" height="11" rx="2" ry="2" fill="#1d1511"><title>2026-04-28: 0 active minutes, 0 sessions, 0 events</title></rect><rect x="311" y="97" width="11" height="11" rx="2" ry="2" fill="#3b82f6"><title>2026-04-29: 27 active minutes, 66 sessions, 1211 events</title></rect><rect x="311" y="112" width="11" height="11" rx="2" ry="2" fill="#2a5aa7"><title>2026-04-30: 6 active minutes, 9 sessions, 155 events</title></rect><rect x="311" y="127" width="11" height="11" rx="2" ry="2" fill="#1d1511"><title>No vibe record yet</title></rect><rect x="311" y="142" width="11" height="11" rx="2" ry="2" fill="#1d1511"><title>No vibe record yet</title></rect><rect x="326" y="52" width="11" height="11" rx="2" ry="2" fill="#1d1511"><title>No vibe record yet</title></rect><rect x="326" y="67" width="11" height="11" rx="2" ry="2" fill="#1d1511"><title>No vibe record yet</title></rect><rect x="326" y="82" width="11" height="11" rx="2" ry="2" fill="#1d1511"><title>No vibe record yet</title></rect><rect x="326" y="97" width="11" height="11" rx="2" ry="2" fill="#1d1511"><title>No vibe record yet</title></rect><rect x="326" y="112" width="11" height="11" rx="2" ry="2" fill="#1d1511"><title>No vibe record yet</title></rect><rect x="326" y="127" width="11" height="11" rx="2" ry="2" fill="#1d1511"><title>No vibe record yet</title></rect><rect x="326" y="142" width="11" height="11" rx="2" ry="2" fill="#1d1511"><title>No vibe record yet</title></rect><rect x="341" y="52" width="11" height="11" rx="2" ry="2" fill="#1d1511"><title>No vibe record yet</title></rect><rect x="341" y="67" width="11" height="11" rx="2" ry="2" fill="#1d1511"><title>No vibe record yet</title></rect><rect x="341" y="82" width="11" height="11" rx="2" ry="2" fill="#1d1511"><title>No vibe record yet</title></rect><rect x="341" y="97" width="11" height="11" rx="2" ry="2" fill="#1d1511"><title>No vibe record yet</title></rect><rect x="341" y="112" width="11" height="11" rx="2" ry="2" fill="#1d1511"><title>No vibe record yet</title></rect><rect x="341" y="127" width="11" height="11" rx="2" ry="2" fill="#1d1511"><title>No vibe record yet</title></rect><rect x="341" y="142" width="11" height="11" rx="2" ry="2" fill="#1d1511"><title>No vibe record yet</title></rect><rect x="356" y="52" width="11" height="11" rx="2" ry="2" fill="#1d1511"><title>No vibe record yet</title></rect><rect x="356" y="67" width="11" height="11" rx="2" ry="2" fill="#1d1511"><title>No vibe record yet</title></rect><rect x="356" y="82" width="11" height="11" rx="2" ry="2" fill="#1d1511"><title>No vibe record yet</title></rect><rect x="356" y="97" width="11" height="11" rx="2" ry="2" fill="#1d1511"><title>No vibe record yet</title></rect><rect x="356" y="112" width="11" height="11" rx="2" ry="2" fill="#1d1511"><title>No vibe record yet</title></rect><rect x="356" y="127" width="11" height="11" rx="2" ry="2" fill="#1d1511"><title>No vibe record yet</title></rect><rect x="356" y="142" width="11" height="11" rx="2" ry="2" fill="#1d1511"><title>No vibe record yet</title></rect><rect x="371" y="52" width="11" height="11" rx="2" ry="2" fill="#1d1511"><title>No vibe record yet</title></rect><rect x="371" y="67" width="11" height="11" rx="2" ry="2" fill="#1d1511"><title>No vibe record yet</title></rect><rect x="371" y="82" width="11" height="11" rx="2" ry="2" fill="#1d1511"><title>No vibe record yet</title></rect><rect x="371" y="97" width="11" height="11" rx="2" ry="2" fill="#1d1511"><title>No vibe record yet</title></rect><rect x="371" y="112" width="11" height="11" rx="2" ry="2" fill="#1d1511"><title>No vibe record yet</title></rect><rect x="371" y="127" width="11" height="11" rx="2" ry="2" fill="#1d1511"><title>No vibe record yet</title></rect><rect x="371" y="142" width="11" height="11" rx="2" ry="2" fill="#1d1511"><title>No vibe record yet</title></rect><rect x="386" y="52" width="11" height="11" rx="2" ry="2" fill="#1d1511"><title>No vibe record yet</title></rect><rect x="386" y="67" width="11" height="11" rx="2" ry="2" fill="#1d1511"><title>No vibe record yet</title></rect><rect x="386" y="82" width="11" height="11" rx="2" ry="2" fill="#1d1511"><title>No vibe record yet</title></rect><rect x="386" y="97" width="11" height="11" rx="2" ry="2" fill="#1d1511"><title>No vibe record yet</title></rect><rect x="386" y="112" width="11" height="11" rx="2" ry="2" fill="#1d1511"><title>No vibe record yet</title></rect><rect x="386" y="127" width="11" height="11" rx="2" ry="2" fill="#1d1511"><title>No vibe record yet</title></rect><rect x="386" y="142" width="11" height="11" rx="2" ry="2" fill="#1d1511"><title>No vibe record yet</title></rect><rect x="401" y="52" width="11" height="11" rx="2" ry="2" fill="#1d1511"><title>No vibe record yet</title></rect><rect x="401" y="67" width="11" height="11" rx="2" ry="2" fill="#1d1511"><title>No vibe record yet</title></rect><rect x="401" y="82" width="11" height="11" rx="2" ry="2" fill="#1d1511"><title>No vibe record yet</title></rect><rect x="401" y="97" width="11" height="11" rx="2" ry="2" fill="#1d1511"><title>No vibe record yet</title></rect><rect x="401" y="112" width="11" height="11" rx="2" ry="2" fill="#1d1511"><title>No vibe record yet</title></rect><rect x="401" y="127" width="11" height="11" rx="2" ry="2" fill="#1d1511"><title>No vibe record yet</title></rect><rect x="401" y="142" width="11" height="11" rx="2" ry="2" fill="#1d1511"><title>No vibe record yet</title></rect><rect x="416" y="52" width="11" height="11" rx="2" ry="2" fill="#1d1511"><title>No vibe record yet</title></rect><rect x="416" y="67" width="11" height="11" rx="2" ry="2" fill="#1d1511"><title>No vibe record yet</title></rect><rect x="416" y="82" width="11" height="11" rx="2" ry="2" fill="#1d1511"><title>No vibe record yet</title></rect><rect x="416" y="97" width="11" height="11" rx="2" ry="2" fill="#1d1511"><title>No vibe record yet</title></rect><rect x="416" y="112" width="11" height="11" rx="2" ry="2" fill="#1d1511"><title>No vibe record yet</title></rect><rect x="416" y="127" width="11" height="11" rx="2" ry="2" fill="#1d1511"><title>No vibe record yet</title></rect><rect x="416" y="142" width="11" height="11" rx="2" ry="2" fill="#1d1511"><title>No vibe record yet</title></rect><rect x="431" y="52" width="11" height="11" rx="2" ry="2" fill="#1d1511"><title>No vibe record yet</title></rect><rect x="431" y="67" width="11" height="11" rx="2" ry="2" fill="#1d1511"><title>No vibe record yet</title></rect><rect x="431" y="82" width="11" height="11" rx="2" ry="2" fill="#1d1511"><title>No vibe record yet</title></rect><rect x="431" y="97" width="11" height="11" rx="2" ry="2" fill="#1d1511"><title>No vibe record yet</title></rect><rect x="431" y="112" width="11" height="11" rx="2" ry="2" fill="#1d1511"><title>No vibe record yet</title></rect><rect x="431" y="127" width="11" height="11" rx="2" ry="2" fill="#1d1511"><title>No vibe record yet</title></rect><rect x="431" y="142" width="11" height="11" rx="2" ry="2" fill="#1d1511"><title>No vibe record yet</title></rect><rect x="446" y="52" width="11" height="11" rx="2" ry="2" fill="#1d1511"><title>No vibe record yet</title></rect><rect x="446" y="67" width="11" height="11" rx="2" ry="2" fill="#1d1511"><title>No vibe record yet</title></rect><rect x="446" y="82" width="11" height="11" rx="2" ry="2" fill="#1d1511"><title>No vibe record yet</title></rect><rect x="446" y="97" width="11" height="11" rx="2" ry="2" fill="#1d1511"><title>No vibe record yet</title></rect><rect x="446" y="112" width="11" height="11" rx="2" ry="2" fill="#1d1511"><title>No vibe record yet</title></rect><rect x="446" y="127" width="11" height="11" rx="2" ry="2" fill="#1d1511"><title>No vibe record yet</title></rect><rect x="446" y="142" width="11" height="11" rx="2" ry="2" fill="#1d1511"><title>No vibe record yet</title></rect><rect x="461" y="52" width="11" height="11" rx="2" ry="2" fill="#1d1511"><title>No vibe record yet</title></rect><rect x="461" y="67" width="11" height="11" rx="2" ry="2" fill="#1d1511"><title>No vibe record yet</title></rect><rect x="461" y="82" width="11" height="11" rx="2" ry="2" fill="#1d1511"><title>No vibe record yet</title></rect><rect x="461" y="97" width="11" height="11" rx="2" ry="2" fill="#1d1511"><title>No vibe record yet</title></rect><rect x="461" y="112" width="11" height="11" rx="2" ry="2" fill="#1d1511"><title>No vibe record yet</title></rect><rect x="461" y="127" width="11" height="11" rx="2" ry="2" fill="#1d1511"><title>No vibe record yet</title></rect><rect x="461" y="142" width="11" height="11" rx="2" ry="2" fill="#1d1511"><title>No vibe record yet</title></rect><rect x="476" y="52" width="11" height="11" rx="2" ry="2" fill="#1d1511"><title>No vibe record yet</title></rect><rect x="476" y="67" width="11" height="11" rx="2" ry="2" fill="#1d1511"><title>No vibe record yet</title></rect><rect x="476" y="82" width="11" height="11" rx="2" ry="2" fill="#1d1511"><title>No vibe record yet</title></rect><rect x="476" y="97" width="11" height="11" rx="2" ry="2" fill="#1d1511"><title>No vibe record yet</title></rect><rect x="476" y="112" width="11" height="11" rx="2" ry="2" fill="#1d1511"><title>No vibe record yet</title></rect><rect x="476" y="127" width="11" height="11" rx="2" ry="2" fill="#1d1511"><title>No vibe record yet</title></rect><rect x="476" y="142" width="11" height="11" rx="2" ry="2" fill="#1d1511"><title>No vibe record yet</title></rect><rect x="491" y="52" width="11" height="11" rx="2" ry="2" fill="#1d1511"><title>No vibe record yet</title></rect><rect x="491" y="67" width="11" height="11" rx="2" ry="2" fill="#1d1511"><title>No vibe record yet</title></rect><rect x="491" y="82" width="11" height="11" rx="2" ry="2" fill="#1d1511"><title>No vibe record yet</title></rect><rect x="491" y="97" width="11" height="11" rx="2" ry="2" fill="#1d1511"><title>No vibe record yet</title></rect><rect x="491" y="112" width="11" height="11" rx="2" ry="2" fill="#1d1511"><title>No vibe record yet</title></rect><rect x="491" y="127" width="11" height="11" rx="2" ry="2" fill="#1d1511"><title>No vibe record yet</title></rect><rect x="491" y="142" width="11" height="11" rx="2" ry="2" fill="#1d1511"><title>No vibe record yet</title></rect><rect x="506" y="52" width="11" height="11" rx="2" ry="2" fill="#1d1511"><title>No vibe record yet</title></rect><rect x="506" y="67" width="11" height="11" rx="2" ry="2" fill="#1d1511"><title>No vibe record yet</title></rect><rect x="506" y="82" width="11" height="11" rx="2" ry="2" fill="#1d1511"><title>No vibe record yet</title></rect><rect x="506" y="97" width="11" height="11" rx="2" ry="2" fill="#1d1511"><title>No vibe record yet</title></rect><rect x="506" y="112" width="11" height="11" rx="2" ry="2" fill="#1d1511"><title>No vibe record yet</title></rect><rect x="506" y="127" width="11" height="11" rx="2" ry="2" fill="#1d1511"><title>No vibe record yet</title></rect><rect x="506" y="142" width="11" height="11" rx="2" ry="2" fill="#1d1511"><title>No vibe record yet</title></rect><rect x="521" y="52" width="11" height="11" rx="2" ry="2" fill="#1d1511"><title>No vibe record yet</title></rect><rect x="521" y="67" width="11" height="11" rx="2" ry="2" fill="#1d1511"><title>No vibe record yet</title></rect><rect x="521" y="82" width="11" height="11" rx="2" ry="2" fill="#1d1511"><title>No vibe record yet</title></rect><rect x="521" y="97" width="11" height="11" rx="2" ry="2" fill="#1d1511"><title>No vibe record yet</title></rect><rect x="521" y="112" width="11" height="11" rx="2" ry="2" fill="#1d1511"><title>No vibe record yet</title></rect><rect x="521" y="127" width="11" height="11" rx="2" ry="2" fill="#1d1511"><title>No vibe record yet</title></rect><rect x="521" y="142" width="11" height="11" rx="2" ry="2" fill="#1d1511"><title>No vibe record yet</title></rect><rect x="536" y="52" width="11" height="11" rx="2" ry="2" fill="#1d1511"><title>No vibe record yet</title></rect><rect x="536" y="67" width="11" height="11" rx="2" ry="2" fill="#1d1511"><title>No vibe record yet</title></rect><rect x="536" y="82" width="11" height="11" rx="2" ry="2" fill="#1d1511"><title>No vibe record yet</title></rect><rect x="536" y="97" width="11" height="11" rx="2" ry="2" fill="#1d1511"><title>No vibe record yet</title></rect><rect x="536" y="112" width="11" height="11" rx="2" ry="2" fill="#1d1511"><title>No vibe record yet</title></rect><rect x="536" y="127" width="11" height="11" rx="2" ry="2" fill="#1d1511"><title>No vibe record yet</title></rect><rect x="536" y="142" width="11" height="11" rx="2" ry="2" fill="#1d1511"><title>No vibe record yet</title></rect><rect x="551" y="52" width="11" height="11" rx="2" ry="2" fill="#1d1511"><title>No vibe record yet</title></rect><rect x="551" y="67" width="11" height="11" rx="2" ry="2" fill="#1d1511"><title>No vibe record yet</title></rect><rect x="551" y="82" width="11" height="11" rx="2" ry="2" fill="#1d1511"><title>No vibe record yet</title></rect><rect x="551" y="97" width="11" height="11" rx="2" ry="2" fill="#1d1511"><title>No vibe record yet</title></rect><rect x="551" y="112" width="11" height="11" rx="2" ry="2" fill="#1d1511"><title>No vibe record yet</title></rect><rect x="551" y="127" width="11" height="11" rx="2" ry="2" fill="#1d1511"><title>No vibe record yet</title></rect><rect x="551" y="142" width="11" height="11" rx="2" ry="2" fill="#1d1511"><title>No vibe record yet</title></rect><rect x="566" y="52" width="11" height="11" rx="2" ry="2" fill="#1d1511"><title>No vibe record yet</title></rect><rect x="566" y="67" width="11" height="11" rx="2" ry="2" fill="#1d1511"><title>No vibe record yet</title></rect><rect x="566" y="82" width="11" height="11" rx="2" ry="2" fill="#1d1511"><title>No vibe record yet</title></rect><rect x="566" y="97" width="11" height="11" rx="2" ry="2" fill="#1d1511"><title>No vibe record yet</title></rect><rect x="566" y="112" width="11" height="11" rx="2" ry="2" fill="#1d1511"><title>No vibe record yet</title></rect><rect x="566" y="127" width="11" height="11" rx="2" ry="2" fill="#1d1511"><title>No vibe record yet</title></rect><rect x="566" y="142" width="11" height="11" rx="2" ry="2" fill="#1d1511"><title>No vibe record yet</title></rect><rect x="581" y="52" width="11" height="11" rx="2" ry="2" fill="#1d1511"><title>No vibe record yet</title></rect><rect x="581" y="67" width="11" height="11" rx="2" ry="2" fill="#1d1511"><title>No vibe record yet</title></rect><rect x="581" y="82" width="11" height="11" rx="2" ry="2" fill="#1d1511"><title>No vibe record yet</title></rect><rect x="581" y="97" width="11" height="11" rx="2" ry="2" fill="#1d1511"><title>No vibe record yet</title></rect><rect x="581" y="112" width="11" height="11" rx="2" ry="2" fill="#1d1511"><title>No vibe record yet</title></rect><rect x="581" y="127" width="11" height="11" rx="2" ry="2" fill="#1d1511"><title>No vibe record yet</title></rect><rect x="581" y="142" width="11" height="11" rx="2" ry="2" fill="#1d1511"><title>No vibe record yet</title></rect><rect x="596" y="52" width="11" height="11" rx="2" ry="2" fill="#1d1511"><title>No vibe record yet</title></rect><rect x="596" y="67" width="11" height="11" rx="2" ry="2" fill="#1d1511"><title>No vibe record yet</title></rect><rect x="596" y="82" width="11" height="11" rx="2" ry="2" fill="#1d1511"><title>No vibe record yet</title></rect><rect x="596" y="97" width="11" height="11" rx="2" ry="2" fill="#1d1511"><title>No vibe record yet</title></rect><rect x="596" y="112" width="11" height="11" rx="2" ry="2" fill="#1d1511"><title>No vibe record yet</title></rect><rect x="596" y="127" width="11" height="11" rx="2" ry="2" fill="#1d1511"><title>No vibe record yet</title></rect><rect x="596" y="142" width="11" height="11" rx="2" ry="2" fill="#1d1511"><title>No vibe record yet</title></rect><rect x="611" y="52" width="11" height="11" rx="2" ry="2" fill="#1d1511"><title>No vibe record yet</title></rect><rect x="611" y="67" width="11" height="11" rx="2" ry="2" fill="#1d1511"><title>No vibe record yet</title></rect><rect x="611" y="82" width="11" height="11" rx="2" ry="2" fill="#1d1511"><title>No vibe record yet</title></rect><rect x="611" y="97" width="11" height="11" rx="2" ry="2" fill="#1d1511"><title>No vibe record yet</title></rect><rect x="611" y="112" width="11" height="11" rx="2" ry="2" fill="#1d1511"><title>No vibe record yet</title></rect><rect x="611" y="127" width="11" height="11" rx="2" ry="2" fill="#1d1511"><title>No vibe record yet</title></rect><rect x="611" y="142" width="11" height="11" rx="2" ry="2" fill="#1d1511"><title>No vibe record yet</title></rect><rect x="626" y="52" width="11" height="11" rx="2" ry="2" fill="#1d1511"><title>No vibe record yet</title></rect><rect x="626" y="67" width="11" height="11" rx="2" ry="2" fill="#1d1511"><title>No vibe record yet</title></rect><rect x="626" y="82" width="11" height="11" rx="2" ry="2" fill="#1d1511"><title>No vibe record yet</title></rect><rect x="626" y="97" width="11" height="11" rx="2" ry="2" fill="#1d1511"><title>No vibe record yet</title></rect><rect x="626" y="112" width="11" height="11" rx="2" ry="2" fill="#1d1511"><title>No vibe record yet</title></rect><rect x="626" y="127" width="11" height="11" rx="2" ry="2" fill="#1d1511"><title>No vibe record yet</title></rect><rect x="626" y="142" width="11" height="11" rx="2" ry="2" fill="#1d1511"><title>No vibe record yet</title></rect><rect x="641" y="52" width="11" height="11" rx="2" ry="2" fill="#1d1511"><title>No vibe record yet</title></rect><rect x="641" y="67" width="11" height="11" rx="2" ry="2" fill="#1d1511"><title>No vibe record yet</title></rect><rect x="641" y="82" width="11" height="11" rx="2" ry="2" fill="#1d1511"><title>No vibe record yet</title></rect><rect x="641" y="97" width="11" height="11" rx="2" ry="2" fill="#1d1511"><title>No vibe record yet</title></rect><rect x="641" y="112" width="11" height="11" rx="2" ry="2" fill="#1d1511"><title>No vibe record yet</title></rect><rect x="641" y="127" width="11" height="11" rx="2" ry="2" fill="#1d1511"><title>No vibe record yet</title></rect><rect x="641" y="142" width="11" height="11" rx="2" ry="2" fill="#1d1511"><title>No vibe record yet</title></rect><rect x="656" y="52" width="11" height="11" rx="2" ry="2" fill="#1d1511"><title>No vibe record yet</title></rect><rect x="656" y="67" width="11" height="11" rx="2" ry="2" fill="#1d1511"><title>No vibe record yet</title></rect><rect x="656" y="82" width="11" height="11" rx="2" ry="2" fill="#1d1511"><title>No vibe record yet</title></rect><rect x="656" y="97" width="11" height="11" rx="2" ry="2" fill="#1d1511"><title>No vibe record yet</title></rect><rect x="656" y="112" width="11" height="11" rx="2" ry="2" fill="#1d1511"><title>No vibe record yet</title></rect><rect x="656" y="127" width="11" height="11" rx="2" ry="2" fill="#1d1511"><title>No vibe record yet</title></rect><rect x="656" y="142" width="11" height="11" rx="2" ry="2" fill="#1d1511"><title>No vibe record yet</title></rect><rect x="671" y="52" width="11" height="11" rx="2" ry="2" fill="#1d1511"><title>No vibe record yet</title></rect><rect x="671" y="67" width="11" height="11" rx="2" ry="2" fill="#1d1511"><title>No vibe record yet</title></rect><rect x="671" y="82" width="11" height="11" rx="2" ry="2" fill="#1d1511"><title>No vibe record yet</title></rect><rect x="671" y="97" width="11" height="11" rx="2" ry="2" fill="#1d1511"><title>No vibe record yet</title></rect><rect x="671" y="112" width="11" height="11" rx="2" ry="2" fill="#1d1511"><title>No vibe record yet</title></rect><rect x="671" y="127" width="11" height="11" rx="2" ry="2" fill="#1d1511"><title>No vibe record yet</title></rect><rect x="671" y="142" width="11" height="11" rx="2" ry="2" fill="#1d1511"><title>No vibe record yet</title></rect><rect x="686" y="52" width="11" height="11" rx="2" ry="2" fill="#1d1511"><title>No vibe record yet</title></rect><rect x="686" y="67" width="11" height="11" rx="2" ry="2" fill="#1d1511"><title>No vibe record yet</title></rect><rect x="686" y="82" width="11" height="11" rx="2" ry="2" fill="#1d1511"><title>No vibe record yet</title></rect><rect x="686" y="97" width="11" height="11" rx="2" ry="2" fill="#1d1511"><title>No vibe record yet</title></rect><rect x="686" y="112" width="11" height="11" rx="2" ry="2" fill="#1d1511"><title>No vibe record yet</title></rect><rect x="686" y="127" width="11" height="11" rx="2" ry="2" fill="#1d1511"><title>No vibe record yet</title></rect><rect x="686" y="142" width="11" height="11" rx="2" ry="2" fill="#1d1511"><title>No vibe record yet</title></rect><rect x="701" y="52" width="11" height="11" rx="2" ry="2" fill="#1d1511"><title>No vibe record yet</title></rect><rect x="701" y="67" width="11" height="11" rx="2" ry="2" fill="#1d1511"><title>No vibe record yet</title></rect><rect x="701" y="82" width="11" height="11" rx="2" ry="2" fill="#1d1511"><title>No vibe record yet</title></rect><rect x="701" y="97" width="11" height="11" rx="2" ry="2" fill="#1d1511"><title>No vibe record yet</title></rect><rect x="701" y="112" width="11" height="11" rx="2" ry="2" fill="#1d1511"><title>No vibe record yet</title></rect><rect x="701" y="127" width="11" height="11" rx="2" ry="2" fill="#1d1511"><title>No vibe record yet</title></rect><rect x="701" y="142" width="11" height="11" rx="2" ry="2" fill="#1d1511"><title>No vibe record yet</title></rect><rect x="716" y="52" width="11" height="11" rx="2" ry="2" fill="#1d1511"><title>No vibe record yet</title></rect><rect x="716" y="67" width="11" height="11" rx="2" ry="2" fill="#1d1511"><title>No vibe record yet</title></rect><rect x="716" y="82" width="11" height="11" rx="2" ry="2" fill="#1d1511"><title>No vibe record yet</title></rect><rect x="716" y="97" width="11" height="11" rx="2" ry="2" fill="#1d1511"><title>No vibe record yet</title></rect><rect x="716" y="112" width="11" height="11" rx="2" ry="2" fill="#1d1511"><title>No vibe record yet</title></rect><rect x="716" y="127" width="11" height="11" rx="2" ry="2" fill="#1d1511"><title>No vibe record yet</title></rect><rect x="716" y="142" width="11" height="11" rx="2" ry="2" fill="#1d1511"><title>No vibe record yet</title></rect><rect x="731" y="52" width="11" height="11" rx="2" ry="2" fill="#1d1511"><title>No vibe record yet</title></rect><rect x="731" y="67" width="11" height="11" rx="2" ry="2" fill="#1d1511"><title>No vibe record yet</title></rect><rect x="731" y="82" width="11" height="11" rx="2" ry="2" fill="#1d1511"><title>No vibe record yet</title></rect><rect x="731" y="97" width="11" height="11" rx="2" ry="2" fill="#1d1511"><title>No vibe record yet</title></rect><rect x="731" y="112" width="11" height="11" rx="2" ry="2" fill="#1d1511"><title>No vibe record yet</title></rect><rect x="731" y="127" width="11" height="11" rx="2" ry="2" fill="#1d1511"><title>No vibe record yet</title></rect><rect x="731" y="142" width="11" height="11" rx="2" ry="2" fill="#1d1511"><title>No vibe record yet</title></rect><rect x="746" y="52" width="11" height="11" rx="2" ry="2" fill="#1d1511"><title>No vibe record yet</title></rect><rect x="746" y="67" width="11" height="11" rx="2" ry="2" fill="#1d1511"><title>No vibe record yet</title></rect><rect x="746" y="82" width="11" height="11" rx="2" ry="2" fill="#1d1511"><title>No vibe record yet</title></rect><rect x="746" y="97" width="11" height="11" rx="2" ry="2" fill="#1d1511"><title>No vibe record yet</title></rect><rect x="746" y="112" width="11" height="11" rx="2" ry="2" fill="#1d1511"><title>No vibe record yet</title></rect><rect x="746" y="127" width="11" height="11" rx="2" ry="2" fill="#1d1511"><title>No vibe record yet</title></rect><rect x="746" y="142" width="11" height="11" rx="2" ry="2" fill="#1d1511"><title>No vibe record yet</title></rect><rect x="761" y="52" width="11" height="11" rx="2" ry="2" fill="#1d1511"><title>No vibe record yet</title></rect><rect x="761" y="67" width="11" height="11" rx="2" ry="2" fill="#1d1511"><title>No vibe record yet</title></rect><rect x="761" y="82" width="11" height="11" rx="2" ry="2" fill="#1d1511"><title>No vibe record yet</title></rect><rect x="761" y="97" width="11" height="11" rx="2" ry="2" fill="#1d1511"><title>No vibe record yet</title></rect><rect x="761" y="112" width="11" height="11" rx="2" ry="2" fill="#1d1511"><title>No vibe record yet</title></rect><rect x="761" y="127" width="11" height="11" rx="2" ry="2" fill="#1d1511"><title>No vibe record yet</title></rect><rect x="761" y="142" width="11" height="11" rx="2" ry="2" fill="#1d1511"><title>No vibe record yet</title></rect><rect x="776" y="52" width="11" height="11" rx="2" ry="2" fill="#1d1511"><title>No vibe record yet</title></rect><rect x="776" y="67" width="11" height="11" rx="2" ry="2" fill="#1d1511"><title>No vibe record yet</title></rect><rect x="776" y="82" width="11" height="11" rx="2" ry="2" fill="#1d1511"><title>No vibe record yet</title></rect><rect x="776" y="97" width="11" height="11" rx="2" ry="2" fill="#1d1511"><title>No vibe record yet</title></rect><rect x="776" y="112" width="11" height="11" rx="2" ry="2" fill="#1d1511"><title>No vibe record yet</title></rect><rect x="776" y="127" width="11" height="11" rx="2" ry="2" fill="#1d1511"><title>No vibe record yet</title></rect><rect x="776" y="142" width="11" height="11" rx="2" ry="2" fill="#1d1511"><title>No vibe record yet</title></rect><rect x="791" y="52" width="11" height="11" rx="2" ry="2" fill="#1d1511"><title>No vibe record yet</title></rect><rect x="791" y="67" width="11" height="11" rx="2" ry="2" fill="#1d1511"><title>No vibe record yet</title></rect><rect x="791" y="82" width="11" height="11" rx="2" ry="2" fill="#1d1511"><title>No vibe record yet</title></rect><rect x="791" y="97" width="11" height="11" rx="2" ry="2" fill="#1d1511"><title>No vibe record yet</title></rect><rect x="791" y="112" width="11" height="11" rx="2" ry="2" fill="#1d1511"><title>No vibe record yet</title></rect><rect x="791" y="127" width="11" height="11" rx="2" ry="2" fill="#1d1511"><title>No vibe record yet</title></rect><rect x="791" y="142" width="11" height="11" rx="2" ry="2" fill="#1d1511"><title>No vibe record yet</title></rect><rect x="806" y="52" width="11" height="11" rx="2" ry="2" fill="#1d1511"><title>No vibe record yet</title></rect><rect x="806" y="67" width="11" height="11" rx="2" ry="2" fill="#1d1511"><title>No vibe record yet</title></rect><rect x="806" y="82" width="11" height="11" rx="2" ry="2" fill="#1d1511"><title>No vibe record yet</title></rect><rect x="806" y="97" width="11" height="11" rx="2" ry="2" fill="#1d1511"><title>No vibe record yet</title></rect><rect x="806" y="112" width="11" height="11" rx="2" ry="2" fill="#1d1511"><title>No vibe record yet</title></rect><rect x="806" y="127" width="11" height="11" rx="2" ry="2" fill="#1d1511"><title>No vibe record yet</title></rect><rect x="806" y="142" width="11" height="11" rx="2" ry="2" fill="#1d1511"><title>No vibe record yet</title></rect><rect x="821" y="52" width="11" height="11" rx="2" ry="2" fill="#1d1511"><title>No vibe record yet</title></rect><rect x="821" y="67" width="11" height="11" rx="2" ry="2" fill="#1d1511"><title>No vibe record yet</title></rect><rect x="821" y="82" width="11" height="11" rx="2" ry="2" fill="#1d1511"><title>No vibe record yet</title></rect><rect x="821" y="97" width="11" height="11" rx="2" ry="2" fill="#1d1511"><title>No vibe record yet</title></rect><rect x="821" y="112" width="11" height="11" rx="2" ry="2" fill="#1d1511"><title>No vibe record yet</title></rect><rect x="821" y="127" width="11" height="11" rx="2" ry="2" fill="#1d1511"><title>No vibe record yet</title></rect><rect x="821" y="142" width="11" height="11" rx="2" ry="2" fill="#1d1511"><title>No vibe record yet</title></rect><rect x="836" y="52" width="11" height="11" rx="2" ry="2" fill="#1d1511"><title>No vibe record yet</title></rect><rect x="836" y="67" width="11" height="11" rx="2" ry="2" fill="#1d1511"><title>No vibe record yet</title></rect><rect x="836" y="82" width="11" height="11" rx="2" ry="2" fill="#1d1511"><title>No vibe record yet</title></rect><rect x="836" y="97" width="11" height="11" rx="2" ry="2" fill="#1d1511"><title>No vibe record yet</title></rect><rect x="836" y="112" width="11" height="11" rx="2" ry="2" fill="#1d1511"><title>No vibe record yet</title></rect><rect x="836" y="127" width="11" height="11" rx="2" ry="2" fill="#120c08"><title>2027-01-01: out of range</title></rect><rect x="836" y="142" width="11" height="11" rx="2" ry="2" fill="#120c08"><title>2027-01-02: out of range</title></rect>
  <text x="663" y="213" fill="#8b949e" font-size="10" font-family="system-ui, sans-serif">Less</text><rect x="691" y="204" width="11" height="11" rx="2" ry="2" fill="#1d1511" /><rect x="707" y="204" width="11" height="11" rx="2" ry="2" fill="#4b2718" /><rect x="723" y="204" width="11" height="11" rx="2" ry="2" fill="#7a3b1d" /><rect x="739" y="204" width="11" height="11" rx="2" ry="2" fill="#b75a23" /><rect x="755" y="204" width="11" height="11" rx="2" ry="2" fill="#ff7b2c" /><text x="775" y="213" fill="#8b949e" font-size="10" font-family="system-ui, sans-serif">More (sessions/day)</text>
</svg>
