<svg xmlns="http://www.w3.org/2000/svg" width="883" height="257" viewBox="0 0 883 257" role="img" aria-label="Vibe coding heatmap">
  <rect x="1" y="1" width="881" height="255" fill="#0d1117" stroke="#24493e" stroke-width="2" rx="10" />
  <text x="16" y="28" fill="#e6edf3" font-size="18" font-weight="700" font-family="system-ui, sans-serif">AI Coding Activity</text>
  <text x="16" y="48" fill="#8b949e" font-size="12" font-family="system-ui, sans-serif">16h 57m active · 13 active days · 2026</text>
  <text x="56" y="58" fill="#c9d1d9" font-size="10" font-family="system-ui, sans-serif">Jan</text><text x="131" y="58" fill="#c9d1d9" font-size="10" font-family="system-ui, sans-serif">Feb</text><text x="191" y="58" fill="#c9d1d9" font-size="10" font-family="system-ui, sans-serif">Mar</text><text x="251" y="58" fill="#c9d1d9" font-size="10" font-family="system-ui, sans-serif">Apr</text><text x="311" y="58" fill="#c9d1d9" font-size="10" font-family="system-ui, sans-serif">May</text><text x="386" y="58" fill="#c9d1d9" font-size="10" font-family="system-ui, sans-serif">Jun</text><text x="446" y="58" fill="#c9d1d9" font-size="10" font-family="system-ui, sans-serif">Jul</text><text x="506" y="58" fill="#c9d1d9" font-size="10" font-family="system-ui, sans-serif">Aug</text><text x="581" y="58" fill="#c9d1d9" font-size="10" font-family="system-ui, sans-serif">Sep</text><text x="641" y="58" fill="#c9d1d9" font-size="10" font-family="system-ui, sans-serif">Oct</text><text x="716" y="58" fill="#c9d1d9" font-size="10" font-family="system-ui, sans-serif">Nov</text><text x="776" y="58" fill="#c9d1d9" font-size="10" font-family="system-ui, sans-serif">Dec</text>
  <text x="16" y="96" fill="#8b949e" font-size="10" font-family="system-ui, sans-serif">Mon</text><text x="16" y="126" fill="#8b949e" font-size="10" font-family="system-ui, sans-serif">Wed</text><text x="16" y="156" fill="#8b949e" font-size="10" font-family="system-ui, sans-serif">Fri</text>
  <rect x="56" y="72" width="11" height="11" rx="2" ry="2" fill="#120c08"><title>2025-12-28: out of range</title></rect><rect x="56" y="87" width="11" height="11" rx="2" ry="2" fill="#120c08"><title>2025-12-29: out of range</title></rect><rect x="56" y="102" width="11" height="11" rx="2" ry="2" fill="#120c08"><title>2025-12-30: out of range</title></rect><rect x="56" y="117" width="11" height="11" rx="2" ry="2" fill="#120c08"><title>2025-12-31: out of range</title></rect><rect x="56" y="132" width="11" height="11" rx="2" ry="2" fill="#1d1511"><title>2026-01-01: 0 active minutes, 0 sessions, 0 events</title></rect><rect x="56" y="147" width="11" height="11" rx="2" ry="2" fill="#1d1511"><title>2026-01-02: 0 active minutes, 0 sessions, 0 events</title></rect><rect x="56" y="162" width="11" height="11" rx="2" ry="2" fill="#1d1511"><title>2026-01-03: 0 active minutes, 0 sessions, 0 events</title></rect><rect x="71" y="72" width="11" height="11" rx="2" ry="2" fill="#1d1511"><title>2026-01-04: 0 active minutes, 0 sessions, 0 events</title></rect><rect x="71" y="87" width="11" height="11" rx="2" ry="2" fill="#1d1511"><title>2026-01-05: 0 active minutes, 0 sessions, 0 events</title></rect><rect x="71" y="102" width="11" height="11" rx="2" ry="2" fill="#1d1511"><title>2026-01-06: 0 active minutes, 0 sessions, 0 events</title></rect><rect x="71" y="117" width="11" height="11" rx="2" ry="2" fill="#1d1511"><title>2026-01-07: 0 active minutes, 0 sessions, 0 events</title></rect><rect x="71" y="132" width="11" height="11" rx="2" ry="2" fill="#1d1511"><title>2026-01-08: 0 active minutes, 0 sessions, 0 events</title></rect><rect x="71" y="147" width="11" height="11" rx="2" ry="2" fill="#1d1511"><title>2026-01-09: 0 active minutes, 0 sessions, 0 events</title></rect><rect x="71" y="162" width="11" height="11" rx="2" ry="2" fill="#1d1511"><title>2026-01-10: 0 active minutes, 0 sessions, 0 events</title></rect><rect x="86" y="72" width="11" height="11" rx="2" ry="2" fill="#1d1511"><title>2026-01-11: 0 active minutes, 0 sessions, 0 events</title></rect><rect x="86" y="87" width="11" height="11" rx="2" ry="2" fill="#1d1511"><title>2026-01-12: 0 active minutes, 0 sessions, 0 events</title></rect><rect x="86" y="102" width="11" height="11" rx="2" ry="2" fill="#1d1511"><title>2026-01-13: 0 active minutes, 0 sessions, 0 events</title></rect><rect x="86" y="117" width="11" height="11" rx="2" ry="2" fill="#1d1511"><title>2026-01-14: 0 active minutes, 0 sessions, 0 events</title></rect><rect x="86" y="132" width="11" height="11" rx="2" ry="2" fill="#1d1511"><title>2026-01-15: 0 active minutes, 0 sessions, 0 events</title></rect><rect x="86" y="147" width="11" height="11" rx="2" ry="2" fill="#1d1511"><title>2026-01-16: 0 active minutes, 0 sessions, 0 events</title></rect><rect x="86" y="162" width="11" height="11" rx="2" ry="2" fill="#1d1511"><title>2026-01-17: 0 active minutes, 0 sessions, 0 events</title></rect><rect x="101" y="72" width="11" height="11" rx="2" ry="2" fill="#1d1511"><title>2026-01-18: 0 active minutes, 0 sessions, 0 events</title></rect><rect x="101" y="87" width="11" height="11" rx="2" ry="2" fill="#1d1511"><title>2026-01-19: 0 active minutes, 0 sessions, 0 events</title></rect><rect x="101" y="102" width="11" height="11" rx="2" ry="2" fill="#1d1511"><title>2026-01-20: 0 active minutes, 0 sessions, 0 events</title></rect><rect x="101" y="117" width="11" height="11" rx="2" ry="2" fill="#1d1511"><title>2026-01-21: 0 active minutes, 0 sessions, 0 events</title></rect><rect x="101" y="132" width="11" height="11" rx="2" ry="2" fill="#1d1511"><title>2026-01-22: 0 active minutes, 0 sessions, 0 events</title></rect><rect x="101" y="147" width="11" height="11" rx="2" ry="2" fill="#1d1511"><title>2026-01-23: 0 active minutes, 0 sessions, 0 events</title></rect><rect x="101" y="162" width="11" height="11" rx="2" ry="2" fill="#1d1511"><title>2026-01-24: 0 active minutes, 0 sessions, 0 events</title></rect><rect x="116" y="72" width="11" height="11" rx="2" ry="2" fill="#1d1511"><title>2026-01-25: 0 active minutes, 0 sessions, 0 events</title></rect><rect x="116" y="87" width="11" height="11" rx="2" ry="2" fill="#1d1511"><title>2026-01-26: 0 active minutes, 0 sessions, 0 events</title></rect><rect x="116" y="102" width="11" height="11" rx="2" ry="2" fill="#1d1511"><title>2026-01-27: 0 active minutes, 0 sessions, 0 events</title></rect><rect x="116" y="117" width="11" height="11" rx="2" ry="2" fill="#1d1511"><title>2026-01-28: 0 active minutes, 0 sessions, 0 events</title></rect><rect x="116" y="132" width="11" height="11" rx="2" ry="2" fill="#1d1511"><title>2026-01-29: 0 active minutes, 0 sessions, 0 events</title></rect><rect x="116" y="147" width="11" height="11" rx="2" ry="2" fill="#1d1511"><title>2026-01-30: 0 active minutes, 0 sessions, 0 events</title></rect><rect x="116" y="162" width="11" height="11" rx="2" ry="2" fill="#1d1511"><title>2026-01-31: 0 active minutes, 0 sessions, 0 events</title></rect><rect x="131" y="72" width="11" height="11" rx="2" ry="2" fill="#1d1511"><title>2026-02-01: 0 active minutes, 0 sessions, 0 events</title></rect><rect x="131" y="87" width="11" height="11" rx="2" ry="2" fill="#1d1511"><title>2026-02-02: 0 active minutes, 0 sessions, 0 events</title></rect><rect x="131" y="102" width="11" height="11" rx="2" ry="2" fill="#1d1511"><title>2026-02-03: 0 active minutes, 0 sessions, 0 events</title></rect><rect x="131" y="117" width="11" height="11" rx="2" ry="2" fill="#1d1511"><title>2026-02-04: 0 active minutes, 0 sessions, 0 events</title></rect><rect x="131" y="132" width="11" height="11" rx="2" ry="2" fill="#1d1511"><title>2026-02-05: 0 active minutes, 0 sessions, 0 events</title></rect><rect x="131" y="147" width="11" height="11" rx="2" ry="2" fill="#1d1511"><title>2026-02-06: 0 active minutes, 0 sessions, 0 events</title></rect><rect x="131" y="162" width="11" height="11" rx="2" ry="2" fill="#1d1511"><title>2026-02-07: 0 active minutes, 0 sessions, 0 events</title></rect><rect x="146" y="72" width="11" height="11" rx="2" ry="2" fill="#1d1511"><title>2026-02-08: 0 active minutes, 0 sessions, 0 events</title></rect><rect x="146" y="87" width="11" height="11" rx="2" ry="2" fill="#1d1511"><title>2026-02-09: 0 active minutes, 0 sessions, 0 events</title></rect><rect x="146" y="102" width="11" height="11" rx="2" ry="2" fill="#1d1511"><title>2026-02-10: 0 active minutes, 0 sessions, 0 events</title></rect><rect x="146" y="117" width="11" height="11" rx="2" ry="2" fill="#1d1511"><title>2026-02-11: 0 active minutes, 0 sessions, 0 events</title></rect><rect x="146" y="132" width="11" height="11" rx="2" ry="2" fill="#1d1511"><title>2026-02-12: 0 active minutes, 0 sessions, 0 events</title></rect><rect x="146" y="147" width="11" height="11" rx="2" ry="2" fill="#1d1511"><title>2026-02-13: 0 active minutes, 0 sessions, 0 events</title></rect><rect x="146" y="162" width="11" height="11" rx="2" ry="2" fill="#1d1511"><title>2026-02-14: 0 active minutes, 0 sessions, 0 events</title></rect><rect x="161" y="72" width="11" height="11" rx="2" ry="2" fill="#1d1511"><title>2026-02-15: 0 active minutes, 0 sessions, 0 events</title></rect><rect x="161" y="87" width="11" height="11" rx="2" ry="2" fill="#1d1511"><title>2026-02-16: 0 active minutes, 0 sessions, 0 events</title></rect><rect x="161" y="102" width="11" height="11" rx="2" ry="2" fill="#1d1511"><title>2026-02-17: 0 active minutes, 0 sessions, 0 events</title></rect><rect x="161" y="117" width="11" height="11" rx="2" ry="2" fill="#1d1511"><title>2026-02-18: 0 active minutes, 0 sessions, 0 events</title></rect><rect x="161" y="132" width="11" height="11" rx="2" ry="2" fill="#1d1511"><title>2026-02-19: 0 active minutes, 0 sessions, 0 events</title></rect><rect x="161" y="147" width="11" height="11" rx="2" ry="2" fill="#1d1511"><title>2026-02-20: 0 active minutes, 0 sessions, 0 events</title></rect><rect x="161" y="162" width="11" height="11" rx="2" ry="2" fill="#1d1511"><title>2026-02-21: 0 active minutes, 0 sessions, 0 events</title></rect><rect x="176" y="72" width="11" height="11" rx="2" ry="2" fill="#1d1511"><title>2026-02-22: 0 active minutes, 0 sessions, 0 events</title></rect><rect x="176" y="87" width="11" height="11" rx="2" ry="2" fill="#1d1511"><title>2026-02-23: 0 active minutes, 0 sessions, 0 events</title></rect><rect x="176" y="102" width="11" height="11" rx="2" ry="2" fill="#1d1511"><title>2026-02-24: 0 active minutes, 0 sessions, 0 events</title></rect><rect x="176" y="117" width="11" height="11" rx="2" ry="2" fill="#1d1511"><title>2026-02-25: 0 active minutes, 0 sessions, 0 events</title></rect><rect x="176" y="132" width="11" height="11" rx="2" ry="2" fill="#1d1511"><title>2026-02-26: 0 active minutes, 0 sessions, 0 events</title></rect><rect x="176" y="147" width="11" height="11" rx="2" ry="2" fill="#1d1511"><title>2026-02-27: 0 active minutes, 0 sessions, 0 events</title></rect><rect x="176" y="162" width="11" height="11" rx="2" ry="2" fill="#1d1511"><title>2026-02-28: 0 active minutes, 0 sessions, 0 events</title></rect><rect x="191" y="72" width="11" height="11" rx="2" ry="2" fill="#1d1511"><title>2026-03-01: 0 active minutes, 0 sessions, 0 events</title></rect><rect x="191" y="87" width="11" height="11" rx="2" ry="2" fill="#1d1511"><title>2026-03-02: 0 active minutes, 0 sessions, 0 events</title></rect><rect x="191" y="102" width="11" height="11" rx="2" ry="2" fill="#1d1511"><title>2026-03-03: 0 active minutes, 0 sessions, 0 events</title></rect><rect x="191" y="117" width="11" height="11" rx="2" ry="2" fill="#172948"><title>2026-03-04: 19 active minutes, 2 sessions, 14 events</title></rect><rect x="191" y="132" width="11" height="11" rx="2" ry="2" fill="#172948"><title>2026-03-05: 24 active minutes, 2 sessions, 24 events</title></rect><rect x="191" y="147" width="11" height="11" rx="2" ry="2" fill="#1d1511"><title>2026-03-06: 0 active minutes, 0 sessions, 0 events</title></rect><rect x="191" y="162" width="11" height="11" rx="2" ry="2" fill="#1d1511"><title>2026-03-07: 0 active minutes, 0 sessions, 0 events</title></rect><rect x="206" y="72" width="11" height="11" rx="2" ry="2" fill="#1d1511"><title>2026-03-08: 0 active minutes, 0 sessions, 0 events</title></rect><rect x="206" y="87" width="11" height="11" rx="2" ry="2" fill="#1d1511"><title>2026-03-09: 0 active minutes, 0 sessions, 0 events</title></rect><rect x="206" y="102" width="11" height="11" rx="2" ry="2" fill="#1d1511"><title>2026-03-10: 0 active minutes, 0 sessions, 0 events</title></rect><rect x="206" y="117" width="11" height="11" rx="2" ry="2" fill="#1d1511"><title>2026-03-11: 0 active minutes, 0 sessions, 0 events</title></rect><rect x="206" y="132" width="11" height="11" rx="2" ry="2" fill="#1d1511"><title>2026-03-12: 0 active minutes, 0 sessions, 0 events</title></rect><rect x="206" y="147" width="11" height="11" rx="2" ry="2" fill="#1d1511"><title>2026-03-13: 0 active minutes, 0 sessions, 0 events</title></rect><rect x="206" y="162" width="11" height="11" rx="2" ry="2" fill="#1d1511"><title>2026-03-14: 0 active minutes, 0 sessions, 0 events</title></rect><rect x="221" y="72" width="11" height="11" rx="2" ry="2" fill="#1d1511"><title>2026-03-15: 0 active minutes, 0 sessions, 0 events</title></rect><rect x="221" y="87" width="11" height="11" rx="2" ry="2" fill="#1d1511"><title>2026-03-16: 0 active minutes, 0 sessions, 0 events</title></rect><rect x="221" y="102" width="11" height="11" rx="2" ry="2" fill="#1d1511"><title>2026-03-17: 0 active minutes, 0 sessions, 0 events</title></rect><rect x="221" y="117" width="11" height="11" rx="2" ry="2" fill="#1d1511"><title>2026-03-18: 0 active minutes, 0 sessions, 0 events</title></rect><rect x="221" y="132" width="11" height="11" rx="2" ry="2" fill="#1d1511"><title>2026-03-19: 0 active minutes, 0 sessions, 0 events</title></rect><rect x="221" y="147" width="11" height="11" rx="2" ry="2" fill="#1d1511"><title>2026-03-20: 0 active minutes, 0 sessions, 0 events</title></rect><rect x="221" y="162" width="11" height="11" rx="2" ry="2" fill="#1d1511"><title>2026-03-21: 0 active minutes, 0 sessions, 0 events</title></rect><rect x="236" y="72" width="11" height="11" rx="2" ry="2" fill="#1d1511"><title>2026-03-22: 0 active minutes, 0 sessions, 0 events</title></rect><rect x="236" y="87" width="11" height="11" rx="2" ry="2" fill="#1d1511"><title>2026-03-23: 0 active minutes, 0 sessions, 0 events</title></rect><rect x="236" y="102" width="11" height="11" rx="2" ry="2" fill="#1d1511"><title>2026-03-24: 0 active minutes, 0 sessions, 0 events</title></rect><rect x="236" y="117" width="11" height="11" rx="2" ry="2" fill="#1d1511"><title>2026-03-25: 0 active minutes, 0 sessions, 0 events</title></rect><rect x="236" y="132" width="11" height="11" rx="2" ry="2" fill="#1d1511"><title>2026-03-26: 0 active minutes, 0 sessions, 0 events</title></rect><rect x="236" y="147" width="11" height="11" rx="2" ry="2" fill="#1d1511"><title>2026-03-27: 0 active minutes, 0 sessions, 0 events</title></rect><rect x="236" y="162" width="11" height="11" rx="2" ry="2" fill="#1d1511"><title>2026-03-28: 0 active minutes, 0 sessions, 0 events</title></rect><rect x="251" y="72" width="11" height="11" rx="2" ry="2" fill="#1d1511"><title>2026-03-29: 0 active minutes, 0 sessions, 0 events</title></rect><rect x="251" y="87" width="11" height="11" rx="2" ry="2" fill="#1d1511"><title>2026-03-30: 0 active minutes, 0 sessions, 0 events</title></rect><rect x="251" y="102" width="11" height="11" rx="2" ry="2" fill="#1d1511"><title>2026-03-31: 0 active minutes, 0 sessions, 0 events</title></rect><rect x="251" y="117" width="11" height="11" rx="2" ry="2" fill="#1d1511"><title>2026-04-01: 0 active minutes, 0 sessions, 0 events</title></rect><rect x="251" y="132" width="11" height="11" rx="2" ry="2" fill="#1d1511"><title>2026-04-02: 0 active minutes, 0 sessions, 0 events</title></rect><rect x="251" y="147" width="11" height="11" rx="2" ry="2" fill="#1d1511"><title>2026-04-03: 0 active minutes, 0 sessions, 0 events</title></rect><rect x="251" y="162" width="11" height="11" rx="2" ry="2" fill="#1d1511"><title>2026-04-04: 0 active minutes, 0 sessions, 0 events</title></rect><rect x="266" y="72" width="11" height="11" rx="2" ry="2" fill="#1d1511"><title>2026-04-05: 0 active minutes, 0 sessions, 0 events</title></rect><rect x="266" y="87" width="11" height="11" rx="2" ry="2" fill="#1d1511"><title>2026-04-06: 0 active minutes, 0 sessions, 0 events</title></rect><rect x="266" y="102" width="11" height="11" rx="2" ry="2" fill="#1d1511"><title>2026-04-07: 0 active minutes, 0 sessions, 0 events</title></rect><rect x="266" y="117" width="11" height="11" rx="2" ry="2" fill="#1d1511"><title>2026-04-08: 0 active minutes, 0 sessions, 0 events</title></rect><rect x="266" y="132" width="11" height="11" rx="2" ry="2" fill="#1d1511"><title>2026-04-09: 0 active minutes, 0 sessions, 0 events</title></rect><rect x="266" y="147" width="11" height="11" rx="2" ry="2" fill="#1d1511"><title>2026-04-10: 0 active minutes, 0 sessions, 0 events</title></rect><rect x="266" y="162" width="11" height="11" rx="2" ry="2" fill="#1d1511"><title>2026-04-11: 0 active minutes, 0 sessions, 0 events</title></rect><rect x="281" y="72" width="11" height="11" rx="2" ry="2" fill="#1d1511"><title>2026-04-12: 0 active minutes, 0 sessions, 0 events</title></rect><rect x="281" y="87" width="11" height="11" rx="2" ry="2" fill="#1d1511"><title>2026-04-13: 0 active minutes, 0 sessions, 0 events</title></rect><rect x="281" y="102" width="11" height="11" rx="2" ry="2" fill="#10b981"><title>2026-04-14: 182 active minutes, 674 sessions, 681 events</title></rect><rect x="281" y="117" width="11" height="11" rx="2" ry="2" fill="#0e5743"><title>2026-04-15: 76 active minutes, 261 sessions, 261 events</title></rect><rect x="281" y="132" width="11" height="11" rx="2" ry="2" fill="#1d1511"><title>2026-04-16: 0 active minutes, 0 sessions, 0 events</title></rect><rect x="281" y="147" width="11" height="11" rx="2" ry="2" fill="#1d1511"><title>2026-04-17: 0 active minutes, 0 sessions, 0 events</title></rect><rect x="281" y="162" width="11" height="11" rx="2" ry="2" fill="#1d1511"><title>2026-04-18: 0 active minutes, 0 sessions, 0 events</title></rect><rect x="296" y="72" width="11" height="11" rx="2" ry="2" fill="#10b981"><title>2026-04-19: 122 active minutes, 813 sessions, 813 events</title></rect><rect x="296" y="87" width="11" height="11" rx="2" ry="2" fill="#1d1511"><title>2026-04-20: 0 active minutes, 0 sessions, 0 events</title></rect><rect x="296" y="102" width="11" height="11" rx="2" ry="2" fill="#0e5743"><title>2026-04-21: 45 active minutes, 141 sessions, 141 events</title></rect><rect x="296" y="117" width="11" height="11" rx="2" ry="2" fill="#0e7e5b"><title>2026-04-22: 65 active minutes, 273 sessions, 273 events</title></rect><rect x="296" y="132" width="11" height="11" rx="2" ry="2" fill="#0e7e5b"><title>2026-04-23: 216 active minutes, 636 sessions, 636 events</title></rect><rect x="296" y="147" width="11" height="11" rx="2" ry="2" fill="#0d352e"><title>2026-04-24: 27 active minutes, 81 sessions, 81 events</title></rect><rect x="296" y="162" width="11" height="11" rx="2" ry="2" fill="#0e5743"><title>2026-04-25: 49 active minutes, 192 sessions, 192 events</title></rect><rect x="311" y="72" width="11" height="11" rx="2" ry="2" fill="#1d1511"><title>2026-04-26: 0 active minutes, 0 sessions, 0 events</title></rect><rect x="311" y="87" width="11" height="11" rx="2" ry="2" fill="#1d1511"><title>2026-04-27: 0 active minutes, 0 sessions, 0 events</title></rect><rect x="311" y="102" width="11" height="11" rx="2" ry="2" fill="#0e7e5b"><title>2026-04-28: 38 active minutes, 274 sessions, 274 events</title></rect><rect x="311" y="117" width="11" height="11" rx="2" ry="2" fill="#10b981"><title>2026-04-29: 112 active minutes, 745 sessions, 1890 events</title></rect><rect x="311" y="132" width="11" height="11" rx="2" ry="2" fill="#172948"><title>2026-04-30: 40 active minutes, 73 sessions, 874 events</title></rect><rect x="311" y="147" width="11" height="11" rx="2" ry="2" fill="#1d1511"><title>No vibe record yet</title></rect><rect x="311" y="162" width="11" height="11" rx="2" ry="2" fill="#1d1511"><title>No vibe record yet</title></rect><rect x="326" y="72" width="11" height="11" rx="2" ry="2" fill="#1d1511"><title>No vibe record yet</title></rect><rect x="326" y="87" width="11" height="11" rx="2" ry="2" fill="#1d1511"><title>No vibe record yet</title></rect><rect x="326" y="102" width="11" height="11" rx="2" ry="2" fill="#1d1511"><title>No vibe record yet</title></rect><rect x="326" y="117" width="11" height="11" rx="2" ry="2" fill="#1d1511"><title>No vibe record yet</title></rect><rect x="326" y="132" width="11" height="11" rx="2" ry="2" fill="#1d1511"><title>No vibe record yet</title></rect><rect x="326" y="147" width="11" height="11" rx="2" ry="2" fill="#1d1511"><title>No vibe record yet</title></rect><rect x="326" y="162" width="11" height="11" rx="2" ry="2" fill="#1d1511"><title>No vibe record yet</title></rect><rect x="341" y="72" width="11" height="11" rx="2" ry="2" fill="#1d1511"><title>No vibe record yet</title></rect><rect x="341" y="87" width="11" height="11" rx="2" ry="2" fill="#1d1511"><title>No vibe record yet</title></rect><rect x="341" y="102" width="11" height="11" rx="2" ry="2" fill="#1d1511"><title>No vibe record yet</title></rect><rect x="341" y="117" width="11" height="11" rx="2" ry="2" fill="#1d1511"><title>No vibe record yet</title></rect><rect x="341" y="132" width="11" height="11" rx="2" ry="2" fill="#1d1511"><title>No vibe record yet</title></rect><rect x="341" y="147" width="11" height="11" rx="2" ry="2" fill="#1d1511"><title>No vibe record yet</title></rect><rect x="341" y="162" width="11" height="11" rx="2" ry="2" fill="#1d1511"><title>No vibe record yet</title></rect><rect x="356" y="72" width="11" height="11" rx="2" ry="2" fill="#1d1511"><title>No vibe record yet</title></rect><rect x="356" y="87" width="11" height="11" rx="2" ry="2" fill="#1d1511"><title>No vibe record yet</title></rect><rect x="356" y="102" width="11" height="11" rx="2" ry="2" fill="#1d1511"><title>No vibe record yet</title></rect><rect x="356" y="117" width="11" height="11" rx="2" ry="2" fill="#1d1511"><title>No vibe record yet</title></rect><rect x="356" y="132" width="11" height="11" rx="2" ry="2" fill="#1d1511"><title>No vibe record yet</title></rect><rect x="356" y="147" width="11" height="11" rx="2" ry="2" fill="#1d1511"><title>No vibe record yet</title></rect><rect x="356" y="162" width="11" height="11" rx="2" ry="2" fill="#1d1511"><title>No vibe record yet</title></rect><rect x="371" y="72" width="11" height="11" rx="2" ry="2" fill="#1d1511"><title>No vibe record yet</title></rect><rect x="371" y="87" width="11" height="11" rx="2" ry="2" fill="#1d1511"><title>No vibe record yet</title></rect><rect x="371" y="102" width="11" height="11" rx="2" ry="2" fill="#1d1511"><title>No vibe record yet</title></rect><rect x="371" y="117" width="11" height="11" rx="2" ry="2" fill="#1d1511"><title>No vibe record yet</title></rect><rect x="371" y="132" width="11" height="11" rx="2" ry="2" fill="#1d1511"><title>No vibe record yet</title></rect><rect x="371" y="147" width="11" height="11" rx="2" ry="2" fill="#1d1511"><title>No vibe record yet</title></rect><rect x="371" y="162" width="11" height="11" rx="2" ry="2" fill="#1d1511"><title>No vibe record yet</title></rect><rect x="386" y="72" width="11" height="11" rx="2" ry="2" fill="#1d1511"><title>No vibe record yet</title></rect><rect x="386" y="87" width="11" height="11" rx="2" ry="2" fill="#1d1511"><title>No vibe record yet</title></rect><rect x="386" y="102" width="11" height="11" rx="2" ry="2" fill="#1d1511"><title>No vibe record yet</title></rect><rect x="386" y="117" width="11" height="11" rx="2" ry="2" fill="#1d1511"><title>No vibe record yet</title></rect><rect x="386" y="132" width="11" height="11" rx="2" ry="2" fill="#1d1511"><title>No vibe record yet</title></rect><rect x="386" y="147" width="11" height="11" rx="2" ry="2" fill="#1d1511"><title>No vibe record yet</title></rect><rect x="386" y="162" width="11" height="11" rx="2" ry="2" fill="#1d1511"><title>No vibe record yet</title></rect><rect x="401" y="72" width="11" height="11" rx="2" ry="2" fill="#1d1511"><title>No vibe record yet</title></rect><rect x="401" y="87" width="11" height="11" rx="2" ry="2" fill="#1d1511"><title>No vibe record yet</title></rect><rect x="401" y="102" width="11" height="11" rx="2" ry="2" fill="#1d1511"><title>No vibe record yet</title></rect><rect x="401" y="117" width="11" height="11" rx="2" ry="2" fill="#1d1511"><title>No vibe record yet</title></rect><rect x="401" y="132" width="11" height="11" rx="2" ry="2" fill="#1d1511"><title>No vibe record yet</title></rect><rect x="401" y="147" width="11" height="11" rx="2" ry="2" fill="#1d1511"><title>No vibe record yet</title></rect><rect x="401" y="162" width="11" height="11" rx="2" ry="2" fill="#1d1511"><title>No vibe record yet</title></rect><rect x="416" y="72" width="11" height="11" rx="2" ry="2" fill="#1d1511"><title>No vibe record yet</title></rect><rect x="416" y="87" width="11" height="11" rx="2" ry="2" fill="#1d1511"><title>No vibe record yet</title></rect><rect x="416" y="102" width="11" height="11" rx="2" ry="2" fill="#1d1511"><title>No vibe record yet</title></rect><rect x="416" y="117" width="11" height="11" rx="2" ry="2" fill="#1d1511"><title>No vibe record yet</title></rect><rect x="416" y="132" width="11" height="11" rx="2" ry="2" fill="#1d1511"><title>No vibe record yet</title></rect><rect x="416" y="147" width="11" height="11" rx="2" ry="2" fill="#1d1511"><title>No vibe record yet</title></rect><rect x="416" y="162" width="11" height="11" rx="2" ry="2" fill="#1d1511"><title>No vibe record yet</title></rect><rect x="431" y="72" width="11" height="11" rx="2" ry="2" fill="#1d1511"><title>No vibe record yet</title></rect><rect x="431" y="87" width="11" height="11" rx="2" ry="2" fill="#1d1511"><title>No vibe record yet</title></rect><rect x="431" y="102" width="11" height="11" rx="2" ry="2" fill="#1d1511"><title>No vibe record yet</title></rect><rect x="431" y="117" width="11" height="11" rx="2" ry="2" fill="#1d1511"><title>No vibe record yet</title></rect><rect x="431" y="132" width="11" height="11" rx="2" ry="2" fill="#1d1511"><title>No vibe record yet</title></rect><rect x="431" y="147" width="11" height="11" rx="2" ry="2" fill="#1d1511"><title>No vibe record yet</title></rect><rect x="431" y="162" width="11" height="11" rx="2" ry="2" fill="#1d1511"><title>No vibe record yet</title></rect><rect x="446" y="72" width="11" height="11" rx="2" ry="2" fill="#1d1511"><title>No vibe record yet</title></rect><rect x="446" y="87" width="11" height="11" rx="2" ry="2" fill="#1d1511"><title>No vibe record yet</title></rect><rect x="446" y="102" width="11" height="11" rx="2" ry="2" fill="#1d1511"><title>No vibe record yet</title></rect><rect x="446" y="117" width="11" height="11" rx="2" ry="2" fill="#1d1511"><title>No vibe record yet</title></rect><rect x="446" y="132" width="11" height="11" rx="2" ry="2" fill="#1d1511"><title>No vibe record yet</title></rect><rect x="446" y="147" width="11" height="11" rx="2" ry="2" fill="#1d1511"><title>No vibe record yet</title></rect><rect x="446" y="162" width="11" height="11" rx="2" ry="2" fill="#1d1511"><title>No vibe record yet</title></rect><rect x="461" y="72" width="11" height="11" rx="2" ry="2" fill="#1d1511"><title>No vibe record yet</title></rect><rect x="461" y="87" width="11" height="11" rx="2" ry="2" fill="#1d1511"><title>No vibe record yet</title></rect><rect x="461" y="102" width="11" height="11" rx="2" ry="2" fill="#1d1511"><title>No vibe record yet</title></rect><rect x="461" y="117" width="11" height="11" rx="2" ry="2" fill="#1d1511"><title>No vibe record yet</title></rect><rect x="461" y="132" width="11" height="11" rx="2" ry="2" fill="#1d1511"><title>No vibe record yet</title></rect><rect x="461" y="147" width="11" height="11" rx="2" ry="2" fill="#1d1511"><title>No vibe record yet</title></rect><rect x="461" y="162" width="11" height="11" rx="2" ry="2" fill="#1d1511"><title>No vibe record yet</title></rect><rect x="476" y="72" width="11" height="11" rx="2" ry="2" fill="#1d1511"><title>No vibe record yet</title></rect><rect x="476" y="87" width="11" height="11" rx="2" ry="2" fill="#1d1511"><title>No vibe record yet</title></rect><rect x="476" y="102" width="11" height="11" rx="2" ry="2" fill="#1d1511"><title>No vibe record yet</title></rect><rect x="476" y="117" width="11" height="11" rx="2" ry="2" fill="#1d1511"><title>No vibe record yet</title></rect><rect x="476" y="132" width="11" height="11" rx="2" ry="2" fill="#1d1511"><title>No vibe record yet</title></rect><rect x="476" y="147" width="11" height="11" rx="2" ry="2" fill="#1d1511"><title>No vibe record yet</title></rect><rect x="476" y="162" width="11" height="11" rx="2" ry="2" fill="#1d1511"><title>No vibe record yet</title></rect><rect x="491" y="72" width="11" height="11" rx="2" ry="2" fill="#1d1511"><title>No vibe record yet</title></rect><rect x="491" y="87" width="11" height="11" rx="2" ry="2" fill="#1d1511"><title>No vibe record yet</title></rect><rect x="491" y="102" width="11" height="11" rx="2" ry="2" fill="#1d1511"><title>No vibe record yet</title></rect><rect x="491" y="117" width="11" height="11" rx="2" ry="2" fill="#1d1511"><title>No vibe record yet</title></rect><rect x="491" y="132" width="11" height="11" rx="2" ry="2" fill="#1d1511"><title>No vibe record yet</title></rect><rect x="491" y="147" width="11" height="11" rx="2" ry="2" fill="#1d1511"><title>No vibe record yet</title></rect><rect x="491" y="162" width="11" height="11" rx="2" ry="2" fill="#1d1511"><title>No vibe record yet</title></rect><rect x="506" y="72" width="11" height="11" rx="2" ry="2" fill="#1d1511"><title>No vibe record yet</title></rect><rect x="506" y="87" width="11" height="11" rx="2" ry="2" fill="#1d1511"><title>No vibe record yet</title></rect><rect x="506" y="102" width="11" height="11" rx="2" ry="2" fill="#1d1511"><title>No vibe record yet</title></rect><rect x="506" y="117" width="11" height="11" rx="2" ry="2" fill="#1d1511"><title>No vibe record yet</title></rect><rect x="506" y="132" width="11" height="11" rx="2" ry="2" fill="#1d1511"><title>No vibe record yet</title></rect><rect x="506" y="147" width="11" height="11" rx="2" ry="2" fill="#1d1511"><title>No vibe record yet</title></rect><rect x="506" y="162" width="11" height="11" rx="2" ry="2" fill="#1d1511"><title>No vibe record yet</title></rect><rect x="521" y="72" width="11" height="11" rx="2" ry="2" fill="#1d1511"><title>No vibe record yet</title></rect><rect x="521" y="87" width="11" height="11" rx="2" ry="2" fill="#1d1511"><title>No vibe record yet</title></rect><rect x="521" y="102" width="11" height="11" rx="2" ry="2" fill="#1d1511"><title>No vibe record yet</title></rect><rect x="521" y="117" width="11" height="11" rx="2" ry="2" fill="#1d1511"><title>No vibe record yet</title></rect><rect x="521" y="132" width="11" height="11" rx="2" ry="2" fill="#1d1511"><title>No vibe record yet</title></rect><rect x="521" y="147" width="11" height="11" rx="2" ry="2" fill="#1d1511"><title>No vibe record yet</title></rect><rect x="521" y="162" width="11" height="11" rx="2" ry="2" fill="#1d1511"><title>No vibe record yet</title></rect><rect x="536" y="72" width="11" height="11" rx="2" ry="2" fill="#1d1511"><title>No vibe record yet</title></rect><rect x="536" y="87" width="11" height="11" rx="2" ry="2" fill="#1d1511"><title>No vibe record yet</title></rect><rect x="536" y="102" width="11" height="11" rx="2" ry="2" fill="#1d1511"><title>No vibe record yet</title></rect><rect x="536" y="117" width="11" height="11" rx="2" ry="2" fill="#1d1511"><title>No vibe record yet</title></rect><rect x="536" y="132" width="11" height="11" rx="2" ry="2" fill="#1d1511"><title>No vibe record yet</title></rect><rect x="536" y="147" width="11" height="11" rx="2" ry="2" fill="#1d1511"><title>No vibe record yet</title></rect><rect x="536" y="162" width="11" height="11" rx="2" ry="2" fill="#1d1511"><title>No vibe record yet</title></rect><rect x="551" y="72" width="11" height="11" rx="2" ry="2" fill="#1d1511"><title>No vibe record yet</title></rect><rect x="551" y="87" width="11" height="11" rx="2" ry="2" fill="#1d1511"><title>No vibe record yet</title></rect><rect x="551" y="102" width="11" height="11" rx="2" ry="2" fill="#1d1511"><title>No vibe record yet</title></rect><rect x="551" y="117" width="11" height="11" rx="2" ry="2" fill="#1d1511"><title>No vibe record yet</title></rect><rect x="551" y="132" width="11" height="11" rx="2" ry="2" fill="#1d1511"><title>No vibe record yet</title></rect><rect x="551" y="147" width="11" height="11" rx="2" ry="2" fill="#1d1511"><title>No vibe record yet</title></rect><rect x="551" y="162" width="11" height="11" rx="2" ry="2" fill="#1d1511"><title>No vibe record yet</title></rect><rect x="566" y="72" width="11" height="11" rx="2" ry="2" fill="#1d1511"><title>No vibe record yet</title></rect><rect x="566" y="87" width="11" height="11" rx="2" ry="2" fill="#1d1511"><title>No vibe record yet</title></rect><rect x="566" y="102" width="11" height="11" rx="2" ry="2" fill="#1d1511"><title>No vibe record yet</title></rect><rect x="566" y="117" width="11" height="11" rx="2" ry="2" fill="#1d1511"><title>No vibe record yet</title></rect><rect x="566" y="132" width="11" height="11" rx="2" ry="2" fill="#1d1511"><title>No vibe record yet</title></rect><rect x="566" y="147" width="11" height="11" rx="2" ry="2" fill="#1d1511"><title>No vibe record yet</title></rect><rect x="566" y="162" width="11" height="11" rx="2" ry="2" fill="#1d1511"><title>No vibe record yet</title></rect><rect x="581" y="72" width="11" height="11" rx="2" ry="2" fill="#1d1511"><title>No vibe record yet</title></rect><rect x="581" y="87" width="11" height="11" rx="2" ry="2" fill="#1d1511"><title>No vibe record yet</title></rect><rect x="581" y="102" width="11" height="11" rx="2" ry="2" fill="#1d1511"><title>No vibe record yet</title></rect><rect x="581" y="117" width="11" height="11" rx="2" ry="2" fill="#1d1511"><title>No vibe record yet</title></rect><rect x="581" y="132" width="11" height="11" rx="2" ry="2" fill="#1d1511"><title>No vibe record yet</title></rect><rect x="581" y="147" width="11" height="11" rx="2" ry="2" fill="#1d1511"><title>No vibe record yet</title></rect><rect x="581" y="162" width="11" height="11" rx="2" ry="2" fill="#1d1511"><title>No vibe record yet</title></rect><rect x="596" y="72" width="11" height="11" rx="2" ry="2" fill="#1d1511"><title>No vibe record yet</title></rect><rect x="596" y="87" width="11" height="11" rx="2" ry="2" fill="#1d1511"><title>No vibe record yet</title></rect><rect x="596" y="102" width="11" height="11" rx="2" ry="2" fill="#1d1511"><title>No vibe record yet</title></rect><rect x="596" y="117" width="11" height="11" rx="2" ry="2" fill="#1d1511"><title>No vibe record yet</title></rect><rect x="596" y="132" width="11" height="11" rx="2" ry="2" fill="#1d1511"><title>No vibe record yet</title></rect><rect x="596" y="147" width="11" height="11" rx="2" ry="2" fill="#1d1511"><title>No vibe record yet</title></rect><rect x="596" y="162" width="11" height="11" rx="2" ry="2" fill="#1d1511"><title>No vibe record yet</title></rect><rect x="611" y="72" width="11" height="11" rx="2" ry="2" fill="#1d1511"><title>No vibe record yet</title></rect><rect x="611" y="87" width="11" height="11" rx="2" ry="2" fill="#1d1511"><title>No vibe record yet</title></rect><rect x="611" y="102" width="11" height="11" rx="2" ry="2" fill="#1d1511"><title>No vibe record yet</title></rect><rect x="611" y="117" width="11" height="11" rx="2" ry="2" fill="#1d1511"><title>No vibe record yet</title></rect><rect x="611" y="132" width="11" height="11" rx="2" ry="2" fill="#1d1511"><title>No vibe record yet</title></rect><rect x="611" y="147" width="11" height="11" rx="2" ry="2" fill="#1d1511"><title>No vibe record yet</title></rect><rect x="611" y="162" width="11" height="11" rx="2" ry="2" fill="#1d1511"><title>No vibe record yet</title></rect><rect x="626" y="72" width="11" height="11" rx="2" ry="2" fill="#1d1511"><title>No vibe record yet</title></rect><rect x="626" y="87" width="11" height="11" rx="2" ry="2" fill="#1d1511"><title>No vibe record yet</title></rect><rect x="626" y="102" width="11" height="11" rx="2" ry="2" fill="#1d1511"><title>No vibe record yet</title></rect><rect x="626" y="117" width="11" height="11" rx="2" ry="2" fill="#1d1511"><title>No vibe record yet</title></rect><rect x="626" y="132" width="11" height="11" rx="2" ry="2" fill="#1d1511"><title>No vibe record yet</title></rect><rect x="626" y="147" width="11" height="11" rx="2" ry="2" fill="#1d1511"><title>No vibe record yet</title></rect><rect x="626" y="162" width="11" height="11" rx="2" ry="2" fill="#1d1511"><title>No vibe record yet</title></rect><rect x="641" y="72" width="11" height="11" rx="2" ry="2" fill="#1d1511"><title>No vibe record yet</title></rect><rect x="641" y="87" width="11" height="11" rx="2" ry="2" fill="#1d1511"><title>No vibe record yet</title></rect><rect x="641" y="102" width="11" height="11" rx="2" ry="2" fill="#1d1511"><title>No vibe record yet</title></rect><rect x="641" y="117" width="11" height="11" rx="2" ry="2" fill="#1d1511"><title>No vibe record yet</title></rect><rect x="641" y="132" width="11" height="11" rx="2" ry="2" fill="#1d1511"><title>No vibe record yet</title></rect><rect x="641" y="147" width="11" height="11" rx="2" ry="2" fill="#1d1511"><title>No vibe record yet</title></rect><rect x="641" y="162" width="11" height="11" rx="2" ry="2" fill="#1d1511"><title>No vibe record yet</title></rect><rect x="656" y="72" width="11" height="11" rx="2" ry="2" fill="#1d1511"><title>No vibe record yet</title></rect><rect x="656" y="87" width="11" height="11" rx="2" ry="2" fill="#1d1511"><title>No vibe record yet</title></rect><rect x="656" y="102" width="11" height="11" rx="2" ry="2" fill="#1d1511"><title>No vibe record yet</title></rect><rect x="656" y="117" width="11" height="11" rx="2" ry="2" fill="#1d1511"><title>No vibe record yet</title></rect><rect x="656" y="132" width="11" height="11" rx="2" ry="2" fill="#1d1511"><title>No vibe record yet</title></rect><rect x="656" y="147" width="11" height="11" rx="2" ry="2" fill="#1d1511"><title>No vibe record yet</title></rect><rect x="656" y="162" width="11" height="11" rx="2" ry="2" fill="#1d1511"><title>No vibe record yet</title></rect><rect x="671" y="72" width="11" height="11" rx="2" ry="2" fill="#1d1511"><title>No vibe record yet</title></rect><rect x="671" y="87" width="11" height="11" rx="2" ry="2" fill="#1d1511"><title>No vibe record yet</title></rect><rect x="671" y="102" width="11" height="11" rx="2" ry="2" fill="#1d1511"><title>No vibe record yet</title></rect><rect x="671" y="117" width="11" height="11" rx="2" ry="2" fill="#1d1511"><title>No vibe record yet</title></rect><rect x="671" y="132" width="11" height="11" rx="2" ry="2" fill="#1d1511"><title>No vibe record yet</title></rect><rect x="671" y="147" width="11" height="11" rx="2" ry="2" fill="#1d1511"><title>No vibe record yet</title></rect><rect x="671" y="162" width="11" height="11" rx="2" ry="2" fill="#1d1511"><title>No vibe record yet</title></rect><rect x="686" y="72" width="11" height="11" rx="2" ry="2" fill="#1d1511"><title>No vibe record yet</title></rect><rect x="686" y="87" width="11" height="11" rx="2" ry="2" fill="#1d1511"><title>No vibe record yet</title></rect><rect x="686" y="102" width="11" height="11" rx="2" ry="2" fill="#1d1511"><title>No vibe record yet</title></rect><rect x="686" y="117" width="11" height="11" rx="2" ry="2" fill="#1d1511"><title>No vibe record yet</title></rect><rect x="686" y="132" width="11" height="11" rx="2" ry="2" fill="#1d1511"><title>No vibe record yet</title></rect><rect x="686" y="147" width="11" height="11" rx="2" ry="2" fill="#1d1511"><title>No vibe record yet</title></rect><rect x="686" y="162" width="11" height="11" rx="2" ry="2" fill="#1d1511"><title>No vibe record yet</title></rect><rect x="701" y="72" width="11" height="11" rx="2" ry="2" fill="#1d1511"><title>No vibe record yet</title></rect><rect x="701" y="87" width="11" height="11" rx="2" ry="2" fill="#1d1511"><title>No vibe record yet</title></rect><rect x="701" y="102" width="11" height="11" rx="2" ry="2" fill="#1d1511"><title>No vibe record yet</title></rect><rect x="701" y="117" width="11" height="11" rx="2" ry="2" fill="#1d1511"><title>No vibe record yet</title></rect><rect x="701" y="132" width="11" height="11" rx="2" ry="2" fill="#1d1511"><title>No vibe record yet</title></rect><rect x="701" y="147" width="11" height="11" rx="2" ry="2" fill="#1d1511"><title>No vibe record yet</title></rect><rect x="701" y="162" width="11" height="11" rx="2" ry="2" fill="#1d1511"><title>No vibe record yet</title></rect><rect x="716" y="72" width="11" height="11" rx="2" ry="2" fill="#1d1511"><title>No vibe record yet</title></rect><rect x="716" y="87" width="11" height="11" rx="2" ry="2" fill="#1d1511"><title>No vibe record yet</title></rect><rect x="716" y="102" width="11" height="11" rx="2" ry="2" fill="#1d1511"><title>No vibe record yet</title></rect><rect x="716" y="117" width="11" height="11" rx="2" ry="2" fill="#1d1511"><title>No vibe record yet</title></rect><rect x="716" y="132" width="11" height="11" rx="2" ry="2" fill="#1d1511"><title>No vibe record yet</title></rect><rect x="716" y="147" width="11" height="11" rx="2" ry="2" fill="#1d1511"><title>No vibe record yet</title></rect><rect x="716" y="162" width="11" height="11" rx="2" ry="2" fill="#1d1511"><title>No vibe record yet</title></rect><rect x="731" y="72" width="11" height="11" rx="2" ry="2" fill="#1d1511"><title>No vibe record yet</title></rect><rect x="731" y="87" width="11" height="11" rx="2" ry="2" fill="#1d1511"><title>No vibe record yet</title></rect><rect x="731" y="102" width="11" height="11" rx="2" ry="2" fill="#1d1511"><title>No vibe record yet</title></rect><rect x="731" y="117" width="11" height="11" rx="2" ry="2" fill="#1d1511"><title>No vibe record yet</title></rect><rect x="731" y="132" width="11" height="11" rx="2" ry="2" fill="#1d1511"><title>No vibe record yet</title></rect><rect x="731" y="147" width="11" height="11" rx="2" ry="2" fill="#1d1511"><title>No vibe record yet</title></rect><rect x="731" y="162" width="11" height="11" rx="2" ry="2" fill="#1d1511"><title>No vibe record yet</title></rect><rect x="746" y="72" width="11" height="11" rx="2" ry="2" fill="#1d1511"><title>No vibe record yet</title></rect><rect x="746" y="87" width="11" height="11" rx="2" ry="2" fill="#1d1511"><title>No vibe record yet</title></rect><rect x="746" y="102" width="11" height="11" rx="2" ry="2" fill="#1d1511"><title>No vibe record yet</title></rect><rect x="746" y="117" width="11" height="11" rx="2" ry="2" fill="#1d1511"><title>No vibe record yet</title></rect><rect x="746" y="132" width="11" height="11" rx="2" ry="2" fill="#1d1511"><title>No vibe record yet</title></rect><rect x="746" y="147" width="11" height="11" rx="2" ry="2" fill="#1d1511"><title>No vibe record yet</title></rect><rect x="746" y="162" width="11" height="11" rx="2" ry="2" fill="#1d1511"><title>No vibe record yet</title></rect><rect x="761" y="72" width="11" height="11" rx="2" ry="2" fill="#1d1511"><title>No vibe record yet</title></rect><rect x="761" y="87" width="11" height="11" rx="2" ry="2" fill="#1d1511"><title>No vibe record yet</title></rect><rect x="761" y="102" width="11" height="11" rx="2" ry="2" fill="#1d1511"><title>No vibe record yet</title></rect><rect x="761" y="117" width="11" height="11" rx="2" ry="2" fill="#1d1511"><title>No vibe record yet</title></rect><rect x="761" y="132" width="11" height="11" rx="2" ry="2" fill="#1d1511"><title>No vibe record yet</title></rect><rect x="761" y="147" width="11" height="11" rx="2" ry="2" fill="#1d1511"><title>No vibe record yet</title></rect><rect x="761" y="162" width="11" height="11" rx="2" ry="2" fill="#1d1511"><title>No vibe record yet</title></rect><rect x="776" y="72" width="11" height="11" rx="2" ry="2" fill="#1d1511"><title>No vibe record yet</title></rect><rect x="776" y="87" width="11" height="11" rx="2" ry="2" fill="#1d1511"><title>No vibe record yet</title></rect><rect x="776" y="102" width="11" height="11" rx="2" ry="2" fill="#1d1511"><title>No vibe record yet</title></rect><rect x="776" y="117" width="11" height="11" rx="2" ry="2" fill="#1d1511"><title>No vibe record yet</title></rect><rect x="776" y="132" width="11" height="11" rx="2" ry="2" fill="#1d1511"><title>No vibe record yet</title></rect><rect x="776" y="147" width="11" height="11" rx="2" ry="2" fill="#1d1511"><title>No vibe record yet</title></rect><rect x="776" y="162" width="11" height="11" rx="2" ry="2" fill="#1d1511"><title>No vibe record yet</title></rect><rect x="791" y="72" width="11" height="11" rx="2" ry="2" fill="#1d1511"><title>No vibe record yet</title></rect><rect x="791" y="87" width="11" height="11" rx="2" ry="2" fill="#1d1511"><title>No vibe record yet</title></rect><rect x="791" y="102" width="11" height="11" rx="2" ry="2" fill="#1d1511"><title>No vibe record yet</title></rect><rect x="791" y="117" width="11" height="11" rx="2" ry="2" fill="#1d1511"><title>No vibe record yet</title></rect><rect x="791" y="132" width="11" height="11" rx="2" ry="2" fill="#1d1511"><title>No vibe record yet</title></rect><rect x="791" y="147" width="11" height="11" rx="2" ry="2" fill="#1d1511"><title>No vibe record yet</title></rect><rect x="791" y="162" width="11" height="11" rx="2" ry="2" fill="#1d1511"><title>No vibe record yet</title></rect><rect x="806" y="72" width="11" height="11" rx="2" ry="2" fill="#1d1511"><title>No vibe record yet</title></rect><rect x="806" y="87" width="11" height="11" rx="2" ry="2" fill="#1d1511"><title>No vibe record yet</title></rect><rect x="806" y="102" width="11" height="11" rx="2" ry="2" fill="#1d1511"><title>No vibe record yet</title></rect><rect x="806" y="117" width="11" height="11" rx="2" ry="2" fill="#1d1511"><title>No vibe record yet</title></rect><rect x="806" y="132" width="11" height="11" rx="2" ry="2" fill="#1d1511"><title>No vibe record yet</title></rect><rect x="806" y="147" width="11" height="11" rx="2" ry="2" fill="#1d1511"><title>No vibe record yet</title></rect><rect x="806" y="162" width="11" height="11" rx="2" ry="2" fill="#1d1511"><title>No vibe record yet</title></rect><rect x="821" y="72" width="11" height="11" rx="2" ry="2" fill="#1d1511"><title>No vibe record yet</title></rect><rect x="821" y="87" width="11" height="11" rx="2" ry="2" fill="#1d1511"><title>No vibe record yet</title></rect><rect x="821" y="102" width="11" height="11" rx="2" ry="2" fill="#1d1511"><title>No vibe record yet</title></rect><rect x="821" y="117" width="11" height="11" rx="2" ry="2" fill="#1d1511"><title>No vibe record yet</title></rect><rect x="821" y="132" width="11" height="11" rx="2" ry="2" fill="#1d1511"><title>No vibe record yet</title></rect><rect x="821" y="147" width="11" height="11" rx="2" ry="2" fill="#1d1511"><title>No vibe record yet</title></rect><rect x="821" y="162" width="11" height="11" rx="2" ry="2" fill="#1d1511"><title>No vibe record yet</title></rect><rect x="836" y="72" width="11" height="11" rx="2" ry="2" fill="#1d1511"><title>No vibe record yet</title></rect><rect x="836" y="87" width="11" height="11" rx="2" ry="2" fill="#1d1511"><title>No vibe record yet</title></rect><rect x="836" y="102" width="11" height="11" rx="2" ry="2" fill="#1d1511"><title>No vibe record yet</title></rect><rect x="836" y="117" width="11" height="11" rx="2" ry="2" fill="#1d1511"><title>No vibe record yet</title></rect><rect x="836" y="132" width="11" height="11" rx="2" ry="2" fill="#1d1511"><title>No vibe record yet</title></rect><rect x="836" y="147" width="11" height="11" rx="2" ry="2" fill="#120c08"><title>2027-01-01: out of range</title></rect><rect x="836" y="162" width="11" height="11" rx="2" ry="2" fill="#120c08"><title>2027-01-02: out of range</title></rect>
  <g transform="translate(16.0,225.0) scale(0.8333333333333334)"><path d="M6 .7L10.6 3.35V8.65L6 11.3L1.4 8.65V3.35Z" fill="#3b82f6"/></g><text x="30.0" y="233" fill="#8b949e" font-size="10" font-family="system-ui, sans-serif">Codex</text><g transform="translate(70.0,225.0) scale(0.8333333333333334)"><path d="M2 2C2 1 3 0 4.5 0H7.5C9 0 10 1 10 2V4.5L12 6.5L10 7.5V9C10 10 9 11 7.5 11H4.5C3 11 2 10 2 9V7.5L0 6.5L2 4.5Z" fill="#10b981"/></g><text x="84.0" y="233" fill="#8b949e" font-size="10" font-family="system-ui, sans-serif">GitHub Copilot</text>
</svg>
