<svg xmlns="http://www.w3.org/2000/svg" width="560" height="300" viewBox="0 0 560 300" role="img" aria-label="Last 7 Days">
  <defs>
    <clipPath id="vibe-tool-recent-bar">
      <rect x="32" y="68" width="496" height="10" rx="8" ry="8" />
    </clipPath>
  </defs>
  <rect x="1" y="1" width="558" height="298" fill="#0d1117" stroke="#24493e" stroke-width="2" rx="8" />
  <text x="32" y="32" fill="#5eead4" font-size="18" font-weight="700" font-family="system-ui, sans-serif">Last 7 Days</text>
  <text x="32" y="50" fill="#8b949e" font-size="11" font-family="system-ui, sans-serif">Daily tool usage</text>
  <text x="528" y="50" fill="#8b949e" font-size="11" font-family="system-ui, sans-serif" text-anchor="end">100%</text>
  <rect x="32" y="68" width="496" height="10" fill="#30363d" rx="8" ry="8" />
  <rect x="32.00" y="68" width="496.00" height="10" fill="#3b82f6" clip-path="url(#vibe-tool-recent-bar)" />
  <g transform="translate(33.0,101.0) scale(0.8333333333333334)"><path d="M6 .7L10.6 3.35V8.65L6 11.3L1.4 8.65V3.35Z" fill="#3b82f6"/></g><text x="48" y="110" fill="#c9d1d9" font-size="12" font-weight="600" font-family="system-ui, sans-serif">Codex</text><text x="528" y="110" fill="#8b949e" font-size="11" font-family="system-ui, sans-serif" text-anchor="end">100%  32m</text><polyline points="32.0,138.0 32.0,137.0 114.0,137.0 196.0,137.0 278.0,137.0 360.0,137.0 442.0,120.0 524.0,134.8 524.0,138.0" fill="#3b82f6" fill-opacity="0.1" stroke="none" /><polyline points="32.0,137.0 114.0,137.0 196.0,137.0 278.0,137.0 360.0,137.0 442.0,120.0 524.0,134.8" fill="none" stroke="#3b82f6" stroke-width="1.5" stroke-linecap="round" stroke-linejoin="round" />
</svg>
