<svg xmlns="http://www.w3.org/2000/svg" width="560" height="300" viewBox="0 0 560 300" role="img" aria-label="Vibe Tool Mix">
  <defs>
    <clipPath id="vibe-tool-mix-bar">
      <rect x="32" y="68" width="496" height="10" rx="8" ry="8" />
    </clipPath>
  </defs>
  <rect x="1" y="1" width="558" height="298" fill="#0d1117" stroke="#24493e" stroke-width="2" rx="8" />
  <text x="32" y="32" fill="#5eead4" font-size="18" font-weight="700" font-family="system-ui, sans-serif">Vibe Tool Mix</text>
  <text x="32" y="50" fill="#8b949e" font-size="11" font-family="system-ui, sans-serif">All-time tool usage</text>
  <text x="528" y="50" fill="#8b949e" font-size="11" font-family="system-ui, sans-serif" text-anchor="end">100%</text>
  <rect x="32" y="68" width="496" height="10" fill="#30363d" rx="8" ry="8" />
  <rect x="32.00" y="68" width="427.45" height="10" fill="#10b981" clip-path="url(#vibe-tool-mix-bar)" /><rect x="459.45" y="68" width="66.12" height="10" fill="#3b82f6" clip-path="url(#vibe-tool-mix-bar)" /><rect x="525.57" y="68" width="2.43" height="10" fill="#d97757" clip-path="url(#vibe-tool-mix-bar)" />
  <g transform="translate(33.0,101.0) scale(0.8333333333333334)"><path d="M2 2C2 1 3 0 4.5 0H7.5C9 0 10 1 10 2V4.5L12 6.5L10 7.5V9C10 10 9 11 7.5 11H4.5C3 11 2 10 2 9V7.5L0 6.5L2 4.5Z" fill="#10b981"/></g><text x="48" y="110" fill="#c9d1d9" font-size="12" font-weight="600" font-family="system-ui, sans-serif">GitHub Copilot</text><text x="272" y="110" fill="#8b949e" font-size="11" font-family="system-ui, sans-serif" text-anchor="end">86%  15h 09m</text><polyline points="32.0,138.0 32.0,137.0 36.5,137.0 41.1,137.0 45.6,137.0 50.2,137.0 54.7,137.0 59.2,137.0 63.8,137.0 68.3,137.0 72.8,137.0 77.4,137.0 81.9,137.0 86.5,137.0 91.0,137.0 95.5,128.5 100.1,125.8 104.6,120.0 109.2,136.6 113.7,137.0 118.2,137.0 122.8,137.0 127.3,137.0 131.8,137.0 136.4,137.0 140.9,137.0 145.5,137.0 150.0,137.0 154.5,137.0 159.1,137.0 163.6,137.0 168.2,137.0 172.7,137.0 177.2,137.0 181.8,137.0 186.3,137.0 190.8,137.0 195.4,137.0 199.9,137.0 204.5,137.0 209.0,137.0 213.5,137.0 218.1,137.0 222.6,137.0 227.2,137.0 231.7,137.0 236.2,137.0 240.8,137.0 245.3,137.0 249.8,137.0 254.4,137.0 258.9,137.0 263.5,137.0 268.0,137.0 268.0,138.0" fill="#10b981" fill-opacity="0.1" stroke="none" /><polyline points="32.0,137.0 36.5,137.0 41.1,137.0 45.6,137.0 50.2,137.0 54.7,137.0 59.2,137.0 63.8,137.0 68.3,137.0 72.8,137.0 77.4,137.0 81.9,137.0 86.5,137.0 91.0,137.0 95.5,128.5 100.1,125.8 104.6,120.0 109.2,136.6 113.7,137.0 118.2,137.0 122.8,137.0 127.3,137.0 131.8,137.0 136.4,137.0 140.9,137.0 145.5,137.0 150.0,137.0 154.5,137.0 159.1,137.0 163.6,137.0 168.2,137.0 172.7,137.0 177.2,137.0 181.8,137.0 186.3,137.0 190.8,137.0 195.4,137.0 199.9,137.0 204.5,137.0 209.0,137.0 213.5,137.0 218.1,137.0 222.6,137.0 227.2,137.0 231.7,137.0 236.2,137.0 240.8,137.0 245.3,137.0 249.8,137.0 254.4,137.0 258.9,137.0 263.5,137.0 268.0,137.0" fill="none" stroke="#10b981" stroke-width="1.5" stroke-linecap="round" stroke-linejoin="round" /><g transform="translate(33.0,145.0) scale(0.8333333333333334)"><path d="M6 .7L10.6 3.35V8.65L6 11.3L1.4 8.65V3.35Z" fill="#3b82f6"/></g><text x="48" y="154" fill="#c9d1d9" font-size="12" font-weight="600" font-family="system-ui, sans-serif">Codex</text><text x="272" y="154" fill="#8b949e" font-size="11" font-family="system-ui, sans-serif" text-anchor="end">13%  2h 21m</text><polyline points="32.0,182.0 32.0,181.0 36.5,181.0 41.1,181.0 45.6,181.0 50.2,181.0 54.7,181.0 59.2,181.0 63.8,181.0 68.3,180.9 72.8,180.8 77.4,181.0 81.9,181.0 86.5,181.0 91.0,181.0 95.5,180.9 100.1,181.0 104.6,169.9 109.2,164.0 113.7,181.0 118.2,181.0 122.8,181.0 127.3,181.0 131.8,181.0 136.4,181.0 140.9,181.0 145.5,181.0 150.0,181.0 154.5,181.0 159.1,181.0 163.6,181.0 168.2,181.0 172.7,181.0 177.2,181.0 181.8,181.0 186.3,181.0 190.8,181.0 195.4,181.0 199.9,181.0 204.5,181.0 209.0,181.0 213.5,181.0 218.1,181.0 222.6,181.0 227.2,181.0 231.7,181.0 236.2,181.0 240.8,181.0 245.3,181.0 249.8,181.0 254.4,181.0 258.9,181.0 263.5,181.0 268.0,181.0 268.0,182.0" fill="#3b82f6" fill-opacity="0.1" stroke="none" /><polyline points="32.0,181.0 36.5,181.0 41.1,181.0 45.6,181.0 50.2,181.0 54.7,181.0 59.2,181.0 63.8,181.0 68.3,180.9 72.8,180.8 77.4,181.0 81.9,181.0 86.5,181.0 91.0,181.0 95.5,180.9 100.1,181.0 104.6,169.9 109.2,164.0 113.7,181.0 118.2,181.0 122.8,181.0 127.3,181.0 131.8,181.0 136.4,181.0 140.9,181.0 145.5,181.0 150.0,181.0 154.5,181.0 159.1,181.0 163.6,181.0 168.2,181.0 172.7,181.0 177.2,181.0 181.8,181.0 186.3,181.0 190.8,181.0 195.4,181.0 199.9,181.0 204.5,181.0 209.0,181.0 213.5,181.0 218.1,181.0 222.6,181.0 227.2,181.0 231.7,181.0 236.2,181.0 240.8,181.0 245.3,181.0 249.8,181.0 254.4,181.0 258.9,181.0 263.5,181.0 268.0,181.0" fill="none" stroke="#3b82f6" stroke-width="1.5" stroke-linecap="round" stroke-linejoin="round" /><g transform="translate(301.0,101.0) scale(0.8333333333333334)"><path d="M6 0C6.5 3.8 8.2 5.5 12 6C8.2 6.5 6.5 8.2 6 12C5.5 8.2 3.8 6.5 0 6C3.8 5.5 5.5 3.8 6 0Z" fill="#d97757"/></g><text x="316" y="110" fill="#c9d1d9" font-size="12" font-weight="600" font-family="system-ui, sans-serif">Claude</text><text x="540" y="110" fill="#8b949e" font-size="11" font-family="system-ui, sans-serif" text-anchor="end">0%  5m</text><polyline points="300.0,138.0 300.0,137.0 304.5,137.0 309.1,137.0 313.6,137.0 318.2,137.0 322.7,137.0 327.2,137.0 331.8,137.0 336.3,137.0 340.8,137.0 345.4,137.0 349.9,137.0 354.5,137.0 359.0,137.0 363.5,137.0 368.1,137.0 372.6,137.0 377.2,120.0 381.7,137.0 386.2,137.0 390.8,137.0 395.3,137.0 399.8,137.0 404.4,137.0 408.9,137.0 413.5,137.0 418.0,137.0 422.5,137.0 427.1,137.0 431.6,137.0 436.2,137.0 440.7,137.0 445.2,137.0 449.8,137.0 454.3,137.0 458.8,137.0 463.4,137.0 467.9,137.0 472.5,137.0 477.0,137.0 481.5,137.0 486.1,137.0 490.6,137.0 495.2,137.0 499.7,137.0 504.2,137.0 508.8,137.0 513.3,137.0 517.8,137.0 522.4,137.0 526.9,137.0 531.5,137.0 536.0,137.0 536.0,138.0" fill="#d97757" fill-opacity="0.1" stroke="none" /><polyline points="300.0,137.0 304.5,137.0 309.1,137.0 313.6,137.0 318.2,137.0 322.7,137.0 327.2,137.0 331.8,137.0 336.3,137.0 340.8,137.0 345.4,137.0 349.9,137.0 354.5,137.0 359.0,137.0 363.5,137.0 368.1,137.0 372.6,137.0 377.2,120.0 381.7,137.0 386.2,137.0 390.8,137.0 395.3,137.0 399.8,137.0 404.4,137.0 408.9,137.0 413.5,137.0 418.0,137.0 422.5,137.0 427.1,137.0 431.6,137.0 436.2,137.0 440.7,137.0 445.2,137.0 449.8,137.0 454.3,137.0 458.8,137.0 463.4,137.0 467.9,137.0 472.5,137.0 477.0,137.0 481.5,137.0 486.1,137.0 490.6,137.0 495.2,137.0 499.7,137.0 504.2,137.0 508.8,137.0 513.3,137.0 517.8,137.0 522.4,137.0 526.9,137.0 531.5,137.0 536.0,137.0" fill="none" stroke="#d97757" stroke-width="1.5" stroke-linecap="round" stroke-linejoin="round" />
</svg>
