<svg xmlns="http://www.w3.org/2000/svg" width="560" height="300" viewBox="0 0 560 300" role="img" aria-label="Vibe Tool Mix">
  <defs>
    <clipPath id="vibe-tool-mix-bar">
      <rect x="32" y="68" width="496" height="10" rx="8" ry="8" />
    </clipPath>
  </defs>
  <rect x="1" y="1" width="558" height="298" fill="#0d1117" stroke="#24493e" stroke-width="2" rx="8" />
  <text x="32" y="32" fill="#5eead4" font-size="18" font-weight="700" font-family="system-ui, sans-serif">Vibe Tool Mix</text>
  <text x="32" y="50" fill="#8b949e" font-size="11" font-family="system-ui, sans-serif">All-time tool usage</text>
  <text x="528" y="50" fill="#8b949e" font-size="11" font-family="system-ui, sans-serif" text-anchor="end">100%</text>
  <rect x="32" y="68" width="496" height="10" fill="#30363d" rx="8" ry="8" />
  <rect x="32.00" y="68" width="496.00" height="10" fill="#3b82f6" clip-path="url(#vibe-tool-mix-bar)" />
  <g transform="translate(33.0,101.0) scale(0.8333333333333334)"><path d="M6 .7L10.6 3.35V8.65L6 11.3L1.4 8.65V3.35Z" fill="#3b82f6"/></g><text x="48" y="110" fill="#c9d1d9" font-size="12" font-weight="600" font-family="system-ui, sans-serif">Codex</text><text x="528" y="110" fill="#8b949e" font-size="11" font-family="system-ui, sans-serif" text-anchor="end">100%  1h 20m</text><polyline points="32.0,138.0 32.0,137.0 41.5,137.0 50.9,137.0 60.4,137.0 69.8,137.0 79.3,137.0 88.8,137.0 98.2,137.0 107.7,136.8 117.2,136.7 126.6,137.0 136.1,137.0 145.5,137.0 155.0,137.0 164.5,136.9 173.9,137.0 183.4,120.0 192.8,134.8 202.3,137.0 211.8,137.0 221.2,137.0 230.7,137.0 240.2,137.0 249.6,137.0 259.1,137.0 268.5,137.0 278.0,137.0 287.5,137.0 296.9,137.0 306.4,137.0 315.8,137.0 325.3,137.0 334.8,137.0 344.2,137.0 353.7,137.0 363.2,137.0 372.6,137.0 382.1,137.0 391.5,137.0 401.0,137.0 410.5,137.0 419.9,137.0 429.4,137.0 438.8,137.0 448.3,137.0 457.8,137.0 467.2,137.0 476.7,137.0 486.2,137.0 495.6,137.0 505.1,137.0 514.5,137.0 524.0,137.0 524.0,138.0" fill="#3b82f6" fill-opacity="0.1" stroke="none" /><polyline points="32.0,137.0 41.5,137.0 50.9,137.0 60.4,137.0 69.8,137.0 79.3,137.0 88.8,137.0 98.2,137.0 107.7,136.8 117.2,136.7 126.6,137.0 136.1,137.0 145.5,137.0 155.0,137.0 164.5,136.9 173.9,137.0 183.4,120.0 192.8,134.8 202.3,137.0 211.8,137.0 221.2,137.0 230.7,137.0 240.2,137.0 249.6,137.0 259.1,137.0 268.5,137.0 278.0,137.0 287.5,137.0 296.9,137.0 306.4,137.0 315.8,137.0 325.3,137.0 334.8,137.0 344.2,137.0 353.7,137.0 363.2,137.0 372.6,137.0 382.1,137.0 391.5,137.0 401.0,137.0 410.5,137.0 419.9,137.0 429.4,137.0 438.8,137.0 448.3,137.0 457.8,137.0 467.2,137.0 476.7,137.0 486.2,137.0 495.6,137.0 505.1,137.0 514.5,137.0 524.0,137.0" fill="none" stroke="#3b82f6" stroke-width="1.5" stroke-linecap="round" stroke-linejoin="round" />
</svg>
