<svg xmlns="http://www.w3.org/2000/svg" width="560" height="300" viewBox="0 0 560 300" role="img" aria-label="Vibe Tool Mix">
  <defs>
    <clipPath id="vibe-tool-mix-bar">
      <rect x="32" y="68" width="496" height="10" rx="8" ry="8" />
    </clipPath>
  </defs>
  <rect x="1" y="1" width="558" height="298" fill="#0d1117" stroke="#24493e" stroke-width="2" rx="8" />
  <text x="32" y="32" fill="#5eead4" font-size="18" font-weight="700" font-family="system-ui, sans-serif">Vibe Tool Mix</text>
  <text x="32" y="50" fill="#8b949e" font-size="11" font-family="system-ui, sans-serif">All-time tool usage</text>
  <text x="528" y="50" fill="#8b949e" font-size="11" font-family="system-ui, sans-serif" text-anchor="end">100%</text>
  <rect x="32" y="68" width="496" height="10" fill="#30363d" rx="8" ry="8" />
  <rect x="32.00" y="68" width="449.43" height="10" fill="#10b981" clip-path="url(#vibe-tool-mix-bar)" /><rect x="481.43" y="68" width="46.57" height="10" fill="#3b82f6" clip-path="url(#vibe-tool-mix-bar)" />
  <g transform="translate(33.0,101.0) scale(0.8333333333333334)"><path d="M2 2C2 1 3 0 4.5 0H7.5C9 0 10 1 10 2V4.5L12 6.5L10 7.5V9C10 10 9 11 7.5 11H4.5C3 11 2 10 2 9V7.5L0 6.5L2 4.5Z" fill="#10b981"/></g><text x="48" y="110" fill="#c9d1d9" font-size="12" font-weight="600" font-family="system-ui, sans-serif">GitHub Copilot</text><text x="528" y="110" fill="#8b949e" font-size="11" font-family="system-ui, sans-serif" text-anchor="end">91%  15h 09m</text><polyline points="32.0,138.0 32.0,137.0 41.5,137.0 50.9,137.0 60.4,137.0 69.8,137.0 79.3,137.0 88.8,137.0 98.2,137.0 107.7,137.0 117.2,137.0 126.6,137.0 136.1,137.0 145.5,137.0 155.0,137.0 164.5,128.5 173.9,125.8 183.4,120.0 192.8,136.6 202.3,137.0 211.8,137.0 221.2,137.0 230.7,137.0 240.2,137.0 249.6,137.0 259.1,137.0 268.5,137.0 278.0,137.0 287.5,137.0 296.9,137.0 306.4,137.0 315.8,137.0 325.3,137.0 334.8,137.0 344.2,137.0 353.7,137.0 363.2,137.0 372.6,137.0 382.1,137.0 391.5,137.0 401.0,137.0 410.5,137.0 419.9,137.0 429.4,137.0 438.8,137.0 448.3,137.0 457.8,137.0 467.2,137.0 476.7,137.0 486.2,137.0 495.6,137.0 505.1,137.0 514.5,137.0 524.0,137.0 524.0,138.0" fill="#10b981" fill-opacity="0.1" stroke="none" /><polyline points="32.0,137.0 41.5,137.0 50.9,137.0 60.4,137.0 69.8,137.0 79.3,137.0 88.8,137.0 98.2,137.0 107.7,137.0 117.2,137.0 126.6,137.0 136.1,137.0 145.5,137.0 155.0,137.0 164.5,128.5 173.9,125.8 183.4,120.0 192.8,136.6 202.3,137.0 211.8,137.0 221.2,137.0 230.7,137.0 240.2,137.0 249.6,137.0 259.1,137.0 268.5,137.0 278.0,137.0 287.5,137.0 296.9,137.0 306.4,137.0 315.8,137.0 325.3,137.0 334.8,137.0 344.2,137.0 353.7,137.0 363.2,137.0 372.6,137.0 382.1,137.0 391.5,137.0 401.0,137.0 410.5,137.0 419.9,137.0 429.4,137.0 438.8,137.0 448.3,137.0 457.8,137.0 467.2,137.0 476.7,137.0 486.2,137.0 495.6,137.0 505.1,137.0 514.5,137.0 524.0,137.0" fill="none" stroke="#10b981" stroke-width="1.5" stroke-linecap="round" stroke-linejoin="round" /><g transform="translate(33.0,145.0) scale(0.8333333333333334)"><path d="M6 .7L10.6 3.35V8.65L6 11.3L1.4 8.65V3.35Z" fill="#3b82f6"/></g><text x="48" y="154" fill="#c9d1d9" font-size="12" font-weight="600" font-family="system-ui, sans-serif">Codex</text><text x="528" y="154" fill="#8b949e" font-size="11" font-family="system-ui, sans-serif" text-anchor="end">9%  1h 34m</text><polyline points="32.0,182.0 32.0,181.0 41.5,181.0 50.9,181.0 60.4,181.0 69.8,181.0 79.3,181.0 88.8,181.0 98.2,181.0 107.7,180.8 117.2,180.7 126.6,181.0 136.1,181.0 145.5,181.0 155.0,181.0 164.5,180.9 173.9,181.0 183.4,164.0 192.8,174.3 202.3,181.0 211.8,181.0 221.2,181.0 230.7,181.0 240.2,181.0 249.6,181.0 259.1,181.0 268.5,181.0 278.0,181.0 287.5,181.0 296.9,181.0 306.4,181.0 315.8,181.0 325.3,181.0 334.8,181.0 344.2,181.0 353.7,181.0 363.2,181.0 372.6,181.0 382.1,181.0 391.5,181.0 401.0,181.0 410.5,181.0 419.9,181.0 429.4,181.0 438.8,181.0 448.3,181.0 457.8,181.0 467.2,181.0 476.7,181.0 486.2,181.0 495.6,181.0 505.1,181.0 514.5,181.0 524.0,181.0 524.0,182.0" fill="#3b82f6" fill-opacity="0.1" stroke="none" /><polyline points="32.0,181.0 41.5,181.0 50.9,181.0 60.4,181.0 69.8,181.0 79.3,181.0 88.8,181.0 98.2,181.0 107.7,180.8 117.2,180.7 126.6,181.0 136.1,181.0 145.5,181.0 155.0,181.0 164.5,180.9 173.9,181.0 183.4,164.0 192.8,174.3 202.3,181.0 211.8,181.0 221.2,181.0 230.7,181.0 240.2,181.0 249.6,181.0 259.1,181.0 268.5,181.0 278.0,181.0 287.5,181.0 296.9,181.0 306.4,181.0 315.8,181.0 325.3,181.0 334.8,181.0 344.2,181.0 353.7,181.0 363.2,181.0 372.6,181.0 382.1,181.0 391.5,181.0 401.0,181.0 410.5,181.0 419.9,181.0 429.4,181.0 438.8,181.0 448.3,181.0 457.8,181.0 467.2,181.0 476.7,181.0 486.2,181.0 495.6,181.0 505.1,181.0 514.5,181.0 524.0,181.0" fill="none" stroke="#3b82f6" stroke-width="1.5" stroke-linecap="round" stroke-linejoin="round" />
</svg>
